<svg width="1067" height="625" viewBox="0 0 1067 625" fill="none" xmlns="http://www.w3.org/2000/svg">
<path d="M533.385 497.467L537.845 502.141L533.385 498.342L528.925 502.141L533.385 497.467ZM524.058 401.509L521.633 397.15C515.886 386.819 499.767 375.128 482.292 368.621C471.27 364.516 473.333 351.072 484.818 352.151C490.314 352.669 508.747 361.687 517.508 368.147L524.466 373.274L524.447 338.638C524.426 285.025 518.335 271.033 485.894 250.06C473.014 241.733 471.034 233.509 481.235 230.726C487.8 228.934 508.239 242.635 520.545 257.077L524.463 261.676V143.633L527.221 146.33C531.132 150.153 535.635 150.153 539.546 146.33L542.305 143.633V261.676L546.268 257.077C559.077 242.219 578.9 228.913 585.533 230.726C595.402 233.419 593.729 241.853 581.833 249.401C548.975 270.245 542.305 285.354 542.305 338.986V373.274L549.263 368.147C563.92 357.34 582.973 349.928 587.93 353.1C595.721 358.092 592.527 365.355 580.392 370.25C565.174 376.387 550.467 387.61 545.143 397.15L542.709 401.509L542.247 479.379L539.519 476.713C537.287 474.532 536.168 474.046 533.385 474.046C530.596 474.046 529.48 474.532 527.249 476.713L524.521 479.379L524.058 401.509Z" fill="#0062C5"/>
<path d="M488.373 111.404C464.916 115.02 447.064 131.646 443.242 153.44L442.282 158.902L435.729 160.954C415.039 167.438 400.851 184.633 399.055 205.396L398.555 211.196L394.439 213.557C374.95 224.748 364.78 251.665 372.155 272.531L374.233 278.406L370.598 283.233C356.467 301.989 356.467 325.659 370.598 344.414L374.233 349.238L372.158 355.114C364.71 376.186 374.445 401.956 394.389 413.973L398.555 416.481L399.055 422.267C399.925 432.334 403.838 441.921 410.296 449.81C416.753 457.698 425.464 463.532 435.322 466.571L442.279 468.728L443.239 474.202C450.068 513.113 499.221 529.99 529.14 503.699L533.385 499.969L537.553 503.633C567.534 529.981 616.696 513.149 623.531 474.202L624.487 468.731L631.445 466.574C651.733 460.282 665.931 442.859 667.731 422.051L668.215 416.448L672.328 414.087C692.583 402.456 702.315 375.005 693.916 353.193L692.445 349.361L696.123 344.474C710.305 325.653 710.324 302.016 696.172 283.233L692.537 278.409L694.612 272.531C701.987 251.665 691.816 224.748 672.328 213.557L668.215 211.196L667.712 205.396C666.834 195.329 662.919 185.744 656.464 177.854C650.008 169.964 641.302 164.124 631.448 161.074L624.49 158.917L623.528 153.446C616.699 114.508 567.525 97.6751 537.553 124.011L533.385 127.679L529.14 123.945C518.795 114.855 501.167 109.432 488.373 111.404ZM505.244 129.92C512.677 132.161 519.12 137.054 524.058 144.205C530.801 153.964 535.969 153.964 542.712 144.205C562.115 116.113 607.347 128.589 607.166 161.982C607.114 171.815 589.419 198.085 582.85 198.085C577.48 198.085 578.228 210.001 583.779 212.805C591.813 216.868 611.448 199.508 619.841 180.92C620.99 178.371 622.02 176.192 622.13 176.085C622.703 175.503 631.976 179.29 635.062 181.367C645.907 188.662 651.491 200.512 650.409 213.941C649.888 220.434 651.36 222.525 658.753 225.806C676.929 233.859 684.512 254.359 675.887 272.117C671.764 280.602 671.862 283.023 676.506 287.371C689.953 299.966 693.018 316.715 684.506 331.106L682.489 334.515L679.507 331.897C666.075 320.11 648.061 316.676 628.579 322.195C614.093 326.3 610.05 330.785 614.038 338.326C616.546 343.06 620.172 343.246 631.513 339.213C674.37 323.972 700.239 383.454 658.753 401.842C651.356 405.12 649.885 407.211 650.409 413.706C653.147 447.722 608.877 466.412 589.903 439.249C584.392 431.357 579.941 429.224 574.7 431.962C562.669 438.257 582.026 462.466 603.215 467.625L606.949 468.536L606.253 472.236C600.686 501.844 560.337 508.96 542.712 483.442C539.61 478.951 538.035 477.399 536.021 476.838C531.175 475.49 528.551 476.934 524.058 483.442C506.004 509.58 466.252 501.874 460.149 471.053L459.653 468.548L463.876 467.562C476.29 464.671 490.341 454.268 494.644 444.783C498.972 435.243 487.742 428.148 480.744 436.001C468.9 449.292 464.903 451.362 451.07 451.362C429.317 451.362 414.307 434.985 416.321 413.452C416.903 407.247 415.37 405.102 408.014 401.842C366.619 383.496 391.548 330.285 436.066 341.964C442.905 343.761 444.771 343.522 447.907 340.46C454.142 334.362 450.715 328.19 439.539 325.386C421.924 320.967 402.929 324.328 387.15 334.659C383.753 336.882 378.5 326.135 377.868 315.669C377.191 304.416 380.756 296.278 390.264 287.371C394.907 283.023 395.006 280.599 390.883 272.117C382.258 254.359 389.841 233.856 408.017 225.803C415.367 222.546 416.903 220.401 416.324 214.193C414.767 197.582 424.33 182.646 439.864 177.424C442.381 176.576 444.514 175.974 444.6 176.085C444.689 176.192 446.525 179.674 448.686 183.815C459.726 205 483.8 217.276 486.568 203.128C487.466 198.529 485.844 196.21 478.362 191.392C442.938 168.579 465.136 117.809 505.244 129.92Z" fill="#333333"/>
<path d="M174.5 500V217L220 218L93.5 373L81.5 358H313.5V428H43.5L9.5 362.5L188 147H256.5V500H174.5Z" fill="#0062C5"/>
<path d="M909.5 500V217L955 218L828.5 373L816.5 358H1048.5V428H778.5L744.5 362.5L923 147H991.5V500H909.5Z" fill="#0062C5"/>
</svg>
