<svg width="800" height="800" viewBox="0 0 800 800" fill="none" xmlns="http://www.w3.org/2000/svg">
<path d="M244.865 138.5L292.5 83.6401L330.5 72.334L401.13 83.6401L497.891 72.334L557.562 138.5L653.225 265L688.5 429.734L643.5 554.5L586.5 637.206L483.968 733L404.931 706L356 716.5L309.566 724.812L252.914 665.264L202 621L143 517L122.5 394.5L143 277.5L212.5 170.629L244.865 138.5Z" fill="white"/>
<path d="M323.474 50.6962C283.004 56.9352 252.206 85.6185 245.612 123.218L243.957 132.642L232.651 136.182C196.956 147.368 172.477 177.034 169.378 212.855L168.517 222.863L161.415 226.936C127.793 246.242 110.247 292.682 122.97 328.679L126.555 338.816L120.284 347.143C95.9054 379.501 95.9054 420.337 120.284 452.696L126.555 461.018L122.975 471.154C110.125 507.509 126.92 551.968 161.33 572.701L168.517 577.028L169.378 587.009C170.881 604.378 177.631 620.917 188.772 634.527C199.913 648.137 214.941 658.202 231.947 663.444L243.952 667.166L245.607 676.61C257.389 743.741 342.189 772.858 393.806 727.499L401.13 721.064L408.322 727.386C460.045 772.843 544.861 743.803 556.654 676.61L558.304 667.171L570.308 663.449C605.31 652.594 629.804 622.536 632.908 586.637L633.744 576.971L640.841 572.897C675.784 552.831 692.574 505.472 678.085 467.841L675.547 461.23L681.892 452.799C706.36 420.327 706.392 379.548 681.977 347.143L675.705 338.821L679.285 328.679C692.008 292.682 674.462 246.242 640.841 226.936L633.744 222.863L632.877 212.855C631.362 195.488 624.608 178.951 613.47 165.339C602.333 151.726 587.313 141.651 570.313 136.389L558.309 132.667L556.648 123.229C544.867 56.0514 460.029 27.0114 408.322 72.4477L401.13 78.7746L393.806 72.334C375.959 56.651 345.547 47.2949 323.474 50.6962ZM352.58 82.6411C365.404 86.5076 376.519 94.9487 385.038 107.287C396.672 124.123 405.588 124.123 417.222 107.287C450.696 58.822 528.733 80.346 528.421 137.955C528.331 154.92 497.802 200.243 486.47 200.243C477.205 200.243 478.495 220.8 488.072 225.639C501.932 232.648 535.808 202.698 550.287 170.629C552.27 166.23 554.047 162.472 554.237 162.286C555.226 161.284 571.223 167.817 576.548 171.399C595.257 183.986 604.892 204.43 603.025 227.598C602.126 238.799 604.665 242.407 617.419 248.067C648.778 261.962 661.861 297.329 646.98 327.966C639.868 342.605 640.037 346.781 648.048 354.281C671.247 376.012 676.535 404.907 661.85 429.735L658.371 435.617L653.225 431.099C630.053 410.764 598.975 404.84 565.363 414.362C540.372 421.443 533.397 429.181 540.276 442.192C544.602 450.359 550.858 450.68 570.424 443.722C644.362 417.427 688.994 520.049 617.419 551.771C604.659 557.426 602.121 561.034 603.025 572.241C607.748 630.925 531.371 663.17 498.638 616.307C489.13 602.692 481.451 599.012 472.409 603.736C451.653 614.596 485.047 656.362 521.604 665.264L528.045 666.835L526.845 673.219C517.241 724.3 447.629 736.576 417.222 692.551C411.87 684.803 409.152 682.125 405.678 681.159C397.317 678.832 392.791 681.324 385.038 692.551C353.891 737.646 285.31 724.351 274.781 671.177L273.925 666.856L281.212 665.155C302.628 660.167 326.869 642.22 334.294 625.855C341.761 609.396 322.385 597.156 310.312 610.704C289.879 633.634 282.983 637.206 259.118 637.206C221.588 637.206 195.692 608.952 199.166 571.802C200.171 561.096 197.527 557.395 184.836 551.771C113.42 520.121 156.428 428.318 233.233 448.467C245.03 451.569 248.251 451.155 253.66 445.872C264.417 435.353 258.504 424.705 239.224 419.867C208.833 412.242 176.063 418.042 148.839 435.865C142.98 439.701 133.916 421.159 132.827 403.103C131.658 383.688 137.808 369.649 154.212 354.281C162.224 346.781 162.393 342.599 155.28 327.966C140.4 297.329 153.482 261.957 184.841 248.062C197.522 242.443 200.171 238.742 199.172 228.032C196.485 199.374 212.984 173.607 239.784 164.597C244.126 163.134 247.807 162.095 247.955 162.286C248.108 162.472 251.276 168.479 255.004 175.623C274.051 212.173 315.584 233.351 320.36 208.942C321.909 201.008 319.112 197.007 306.203 188.695C245.088 149.338 283.385 61.7477 352.58 82.6411Z" fill="#333333"/>
<path d="M400.384 716.748L408.078 724.812L400.384 718.257L392.69 724.812L400.384 716.748ZM384.292 551.198L380.11 543.677C370.194 525.854 342.384 505.684 312.237 494.457C293.221 487.375 296.779 464.182 316.594 466.042C326.076 466.937 357.878 482.496 372.992 493.64L384.996 502.484L384.964 442.73C384.927 350.234 374.42 326.095 318.45 289.911C296.229 275.546 292.813 261.357 310.412 256.555C321.739 253.464 357.001 277.102 378.232 302.017L384.991 309.952V106.3L389.75 110.952C396.497 117.548 404.266 117.548 411.013 110.952L415.773 106.3V309.952L422.61 302.017C444.709 276.384 478.907 253.428 490.351 256.555C507.379 261.202 504.491 275.753 483.968 288.774C427.28 324.735 415.773 350.803 415.773 443.329V502.484L427.777 493.64C453.064 474.995 485.935 462.207 494.486 467.681C507.929 476.293 502.418 488.823 481.483 497.269C455.227 507.855 429.855 527.218 420.669 543.677L416.471 551.198L415.672 685.542L410.966 680.942C407.116 677.179 405.186 676.341 400.384 676.341C395.572 676.341 393.647 677.179 389.797 680.942L385.091 685.542L384.292 551.198Z" fill="#0062C5"/>
<path d="M322.728 50.6962C282.258 56.9352 251.46 85.6185 244.865 123.218L243.21 132.642L231.904 136.182C196.209 147.368 171.731 177.034 168.632 212.855L167.77 222.863L160.668 226.936C127.046 246.242 109.5 292.682 122.223 328.679L125.809 338.816L119.537 347.143C95.1589 379.501 95.1589 420.337 119.537 452.696L125.809 461.018L122.229 471.154C109.379 507.508 126.174 551.968 160.583 572.701L167.77 577.027L168.632 587.009C170.134 604.377 176.885 620.917 188.025 634.527C199.166 648.137 214.195 658.202 231.201 663.444L243.205 667.166L244.86 676.61C256.642 743.741 341.442 772.858 393.06 727.499L400.384 721.064L407.576 727.386C459.299 772.843 544.115 743.803 555.907 676.61L557.557 667.171L569.561 663.449C604.563 652.594 629.058 622.536 632.162 586.637L632.997 576.971L640.094 572.897C675.038 552.831 691.828 505.472 677.338 467.841L674.8 461.23L681.146 452.799C705.614 420.327 705.646 379.548 681.23 347.143L674.959 338.821L678.539 328.679C691.262 292.682 673.716 246.242 640.094 226.936L632.997 222.863L632.13 212.855C630.615 195.488 623.861 178.951 612.724 165.338C601.586 151.726 586.566 141.651 569.566 136.389L557.562 132.667L555.902 123.229C544.12 56.0514 459.283 27.0114 407.576 72.4477L400.384 78.7746L393.06 72.334C375.212 56.651 344.8 47.2949 322.728 50.6962ZM351.833 82.6411C364.657 86.5076 375.773 94.9487 384.292 107.287C395.926 124.123 404.842 124.123 416.475 107.287C449.949 58.822 527.986 80.346 527.674 137.955C527.584 154.92 497.056 200.243 485.723 200.243C476.459 200.243 477.749 220.8 487.326 225.639C501.186 232.648 535.062 202.698 549.54 170.629C551.523 166.23 553.3 162.472 553.491 162.286C554.48 161.283 570.476 167.817 575.801 171.399C594.511 183.986 604.146 204.43 602.279 227.598C601.38 238.799 603.918 242.407 616.673 248.067C648.032 261.962 661.114 297.328 646.234 327.966C639.121 342.604 639.29 346.781 647.302 354.281C670.501 376.012 675.789 404.907 661.104 429.734L657.624 435.617L652.479 431.099C629.306 410.764 598.228 404.84 564.617 414.362C539.625 421.443 532.65 429.181 539.53 442.192C543.856 450.359 550.111 450.68 569.678 443.722C643.616 417.427 688.248 520.049 616.673 551.771C603.913 557.426 601.375 561.034 602.279 572.241C607.001 630.925 530.625 663.17 497.891 616.307C488.383 602.692 480.705 599.011 471.662 603.736C450.906 614.596 484.301 656.362 520.858 665.264L527.299 666.835L526.098 673.219C516.495 724.3 446.882 736.576 416.475 692.551C411.124 684.803 408.406 682.125 404.931 681.159C396.571 678.832 392.044 681.324 384.292 692.551C353.145 737.646 284.563 724.351 274.035 671.177L273.178 666.856L280.465 665.155C301.882 660.167 326.123 642.22 333.547 625.855C341.014 609.396 321.638 597.156 309.566 610.704C289.132 633.634 282.237 637.206 258.371 637.206C220.842 637.206 194.946 608.952 198.42 571.802C199.425 561.096 196.781 557.395 184.089 551.771C112.673 520.121 155.681 428.318 232.486 448.467C244.284 451.569 247.504 451.155 252.914 445.872C263.67 435.353 257.758 424.705 238.477 419.867C208.087 412.242 175.316 418.042 148.093 435.865C142.234 439.7 133.17 421.159 132.081 403.103C130.912 383.688 137.062 369.649 153.466 354.281C161.477 346.781 161.646 342.599 154.534 327.966C139.653 297.328 152.736 261.956 184.094 248.062C196.775 242.443 199.425 238.742 198.425 228.032C195.739 199.374 212.238 173.607 239.038 164.597C243.38 163.134 247.06 162.095 247.208 162.286C247.361 162.472 250.529 168.479 254.257 175.622C273.305 212.173 314.838 233.351 319.613 208.942C321.162 201.008 318.365 197.007 305.457 188.695C244.342 149.338 282.638 61.7477 351.833 82.6411Z" fill="#333333"/>
<mask id="path-2-outside-1_19_106" maskUnits="userSpaceOnUse" x="70" y="19" width="660" height="761" fill="black">
<rect fill="white" x="70" y="19" width="660" height="761"/>
<path d="M322.221 50.6962C281.751 56.9352 250.953 85.6185 244.359 123.218L242.703 132.642L231.397 136.182C195.703 147.368 171.224 177.034 168.125 212.855L167.263 222.863L160.161 226.936C126.539 246.242 108.993 292.682 121.717 328.679L125.302 338.816L119.03 347.143C94.652 379.501 94.652 420.337 119.03 452.696L125.302 461.018L121.722 471.154C108.872 507.509 125.667 551.968 160.077 572.701L167.263 577.028L168.125 587.009C169.627 604.378 176.378 620.917 187.518 634.527C198.659 648.137 213.688 658.202 230.694 663.444L242.698 667.166L244.353 676.61C256.135 743.741 340.935 772.858 392.553 727.499L399.877 721.064L407.069 727.386C458.792 772.843 543.608 743.803 555.4 676.61L557.05 667.171L569.054 663.449C604.056 652.594 628.551 622.536 631.655 586.637L632.491 576.971L639.587 572.897C674.531 552.831 691.321 505.472 676.831 467.841L674.293 461.23L680.639 452.799C705.107 420.327 705.139 379.548 680.723 347.143L674.452 338.821L678.032 328.679C690.755 292.682 673.209 246.242 639.587 226.936L632.491 222.863L631.623 212.855C630.108 195.488 623.354 178.951 612.217 165.339C601.079 151.726 586.059 141.651 569.06 136.389L557.056 132.667L555.395 123.229C543.613 56.0514 458.776 27.0114 407.069 72.4477L399.877 78.7746L392.553 72.334C374.705 56.651 344.293 47.2949 322.221 50.6962ZM351.327 82.6411C364.15 86.5076 375.266 94.9487 383.785 107.287C395.419 124.123 404.335 124.123 415.969 107.287C449.442 58.822 527.479 80.346 527.167 137.955C527.077 154.92 496.549 200.243 485.216 200.243C475.952 200.243 477.242 220.8 486.819 225.639C500.679 232.648 534.555 202.698 549.033 170.629C551.016 166.23 552.793 162.472 552.984 162.286C553.973 161.284 569.969 167.817 575.294 171.399C594.004 183.986 603.639 204.43 601.772 227.598C600.873 238.799 603.411 242.407 616.166 248.067C647.525 261.962 660.607 297.329 645.727 327.966C638.614 342.605 638.783 346.781 646.795 354.281C669.994 376.012 675.282 404.907 660.597 429.735L657.117 435.617L651.972 431.099C628.799 410.764 597.721 404.84 564.11 414.362C539.118 421.443 532.143 429.181 539.023 442.192C543.349 450.359 549.605 450.68 569.171 443.722C643.109 417.427 687.741 520.049 616.166 551.771C603.406 557.426 600.868 561.034 601.772 572.241C606.494 630.925 530.118 663.17 497.384 616.307C487.876 602.692 480.198 599.012 471.155 603.736C450.399 614.596 483.794 656.362 520.351 665.264L526.792 666.835L525.591 673.219C515.988 724.3 446.375 736.576 415.969 692.551C410.617 684.803 407.899 682.125 404.425 681.159C396.064 678.832 391.537 681.324 383.785 692.551C352.638 737.646 284.056 724.351 273.528 671.177L272.671 666.856L279.958 665.155C301.375 660.167 325.616 642.22 333.04 625.855C340.507 609.396 321.131 597.156 309.059 610.704C288.625 633.634 281.73 637.206 257.864 637.206C220.335 637.206 194.439 608.952 197.913 571.802C198.918 561.096 196.274 557.395 183.582 551.771C112.166 520.121 155.174 428.318 231.979 448.467C243.777 451.569 246.997 451.155 252.407 445.872C263.163 435.353 257.251 424.705 237.971 419.867C207.58 412.242 174.809 418.042 147.586 435.865C141.727 439.701 132.663 421.159 131.574 403.103C130.405 383.688 136.555 369.649 152.959 354.281C160.97 346.781 161.139 342.599 154.027 327.966C139.146 297.329 152.229 261.957 183.588 248.062C196.268 242.443 198.918 238.742 197.918 228.032C195.232 199.374 211.731 173.607 238.531 164.597C242.873 163.134 246.553 162.095 246.701 162.286C246.855 162.472 250.022 168.479 253.75 175.623C272.798 212.173 314.331 233.351 319.106 208.942C320.656 201.008 317.858 197.007 304.95 188.695C243.835 149.338 282.132 61.7477 351.327 82.6411Z"/>
<path d="M321.474 50.6962C281.004 56.9352 250.206 85.6185 243.612 123.218L241.957 132.642L230.651 136.182C194.956 147.368 170.477 177.034 167.379 212.855L166.517 222.863L159.415 226.936C125.793 246.242 108.247 292.682 120.97 328.679L124.555 338.816L118.284 347.143C93.9054 379.501 93.9054 420.337 118.284 452.696L124.555 461.018L120.975 471.154C108.125 507.508 124.92 551.968 159.33 572.701L166.517 577.027L167.379 587.009C168.881 604.377 175.631 620.917 186.772 634.527C197.913 648.137 212.941 658.202 229.948 663.444L241.952 667.166L243.607 676.61C255.389 743.741 340.189 772.858 391.806 727.499L399.13 721.064L406.322 727.386C458.045 772.843 542.861 743.803 554.654 676.61L556.304 667.171L568.308 663.449C603.31 652.594 627.804 622.536 630.909 586.637L631.744 576.971L638.841 572.897C673.785 552.831 690.574 505.472 676.085 467.841L673.547 461.23L679.892 452.799C704.361 420.327 704.392 379.548 679.977 347.143L673.705 338.821L677.285 328.679C690.009 292.682 672.463 246.242 638.841 226.936L631.744 222.863L630.877 212.855C629.362 195.488 622.608 178.951 611.47 165.338C600.333 151.726 585.313 141.651 568.313 136.389L556.309 132.667L554.649 123.229C542.867 56.0514 458.029 27.0114 406.322 72.4477L399.13 78.7746L391.806 72.334C373.959 56.651 343.547 47.2949 321.474 50.6962ZM350.58 82.6411C363.404 86.5076 374.519 94.9487 383.039 107.287C394.672 124.123 403.588 124.123 415.222 107.287C448.696 58.822 526.733 80.346 526.421 137.955C526.331 154.92 495.802 200.243 484.47 200.243C475.205 200.243 476.495 220.8 486.072 225.639C499.932 232.648 533.808 202.698 548.287 170.629C550.27 166.23 552.047 162.472 552.237 162.286C553.226 161.283 569.223 167.817 574.548 171.399C593.257 183.986 602.892 204.43 601.025 227.598C600.126 238.799 602.665 242.407 615.42 248.067C646.778 261.962 659.861 297.328 644.98 327.966C637.868 342.604 638.037 346.781 646.048 354.281C669.247 376.012 674.536 404.907 659.85 429.734L656.371 435.617L651.226 431.099C628.053 410.764 596.975 404.84 563.363 414.362C538.372 421.443 531.397 429.181 538.277 442.192C542.602 450.359 548.858 450.68 568.424 443.722C642.363 417.427 686.994 520.049 615.42 551.771C602.659 557.426 600.121 561.034 601.025 572.241C605.748 630.925 529.371 663.17 496.638 616.307C487.13 602.692 479.452 599.011 470.409 603.736C449.653 614.596 483.048 656.362 519.604 665.264L526.045 666.835L524.845 673.219C515.242 724.3 445.629 736.576 415.222 692.551C409.871 684.803 407.152 682.125 403.678 681.159C395.318 678.832 390.791 681.324 383.039 692.551C351.892 737.646 283.31 724.351 272.781 671.177L271.925 666.856L279.212 665.155C300.629 660.167 324.869 642.22 332.294 625.855C339.761 609.396 320.385 597.156 308.312 610.704C287.879 633.634 280.983 637.206 257.118 637.206C219.588 637.206 193.692 608.952 197.167 571.802C198.171 561.096 195.527 557.395 182.836 551.771C111.42 520.121 154.428 428.318 231.233 448.467C243.03 451.569 246.251 451.155 251.661 445.872C262.417 435.353 256.504 424.705 237.224 419.867C206.833 412.242 174.063 418.042 146.84 435.865C140.98 439.7 131.916 421.159 130.827 403.103C129.658 383.688 135.808 369.649 152.212 354.281C160.224 346.781 160.393 342.599 153.28 327.966C138.4 297.328 151.482 261.956 182.841 248.062C195.522 242.443 198.171 238.742 197.172 228.032C194.485 199.374 210.984 173.607 237.785 164.597C242.126 163.134 245.807 162.095 245.955 162.286C246.108 162.472 249.276 168.479 253.004 175.622C272.052 212.173 313.584 233.351 318.36 208.942C319.909 201.008 317.112 197.007 304.203 188.695C243.089 149.338 281.385 61.7477 350.58 82.6411Z"/>
</mask>
<path d="M322.221 50.6962C281.751 56.9352 250.953 85.6185 244.359 123.218L242.703 132.642L231.397 136.182C195.703 147.368 171.224 177.034 168.125 212.855L167.263 222.863L160.161 226.936C126.539 246.242 108.993 292.682 121.717 328.679L125.302 338.816L119.03 347.143C94.652 379.501 94.652 420.337 119.03 452.696L125.302 461.018L121.722 471.154C108.872 507.509 125.667 551.968 160.077 572.701L167.263 577.028L168.125 587.009C169.627 604.378 176.378 620.917 187.518 634.527C198.659 648.137 213.688 658.202 230.694 663.444L242.698 667.166L244.353 676.61C256.135 743.741 340.935 772.858 392.553 727.499L399.877 721.064L407.069 727.386C458.792 772.843 543.608 743.803 555.4 676.61L557.05 667.171L569.054 663.449C604.056 652.594 628.551 622.536 631.655 586.637L632.491 576.971L639.587 572.897C674.531 552.831 691.321 505.472 676.831 467.841L674.293 461.23L680.639 452.799C705.107 420.327 705.139 379.548 680.723 347.143L674.452 338.821L678.032 328.679C690.755 292.682 673.209 246.242 639.587 226.936L632.491 222.863L631.623 212.855C630.108 195.488 623.354 178.951 612.217 165.339C601.079 151.726 586.059 141.651 569.06 136.389L557.056 132.667L555.395 123.229C543.613 56.0514 458.776 27.0114 407.069 72.4477L399.877 78.7746L392.553 72.334C374.705 56.651 344.293 47.2949 322.221 50.6962ZM351.327 82.6411C364.15 86.5076 375.266 94.9487 383.785 107.287C395.419 124.123 404.335 124.123 415.969 107.287C449.442 58.822 527.479 80.346 527.167 137.955C527.077 154.92 496.549 200.243 485.216 200.243C475.952 200.243 477.242 220.8 486.819 225.639C500.679 232.648 534.555 202.698 549.033 170.629C551.016 166.23 552.793 162.472 552.984 162.286C553.973 161.284 569.969 167.817 575.294 171.399C594.004 183.986 603.639 204.43 601.772 227.598C600.873 238.799 603.411 242.407 616.166 248.067C647.525 261.962 660.607 297.329 645.727 327.966C638.614 342.605 638.783 346.781 646.795 354.281C669.994 376.012 675.282 404.907 660.597 429.735L657.117 435.617L651.972 431.099C628.799 410.764 597.721 404.84 564.11 414.362C539.118 421.443 532.143 429.181 539.023 442.192C543.349 450.359 549.605 450.68 569.171 443.722C643.109 417.427 687.741 520.049 616.166 551.771C603.406 557.426 600.868 561.034 601.772 572.241C606.494 630.925 530.118 663.17 497.384 616.307C487.876 602.692 480.198 599.012 471.155 603.736C450.399 614.596 483.794 656.362 520.351 665.264L526.792 666.835L525.591 673.219C515.988 724.3 446.375 736.576 415.969 692.551C410.617 684.803 407.899 682.125 404.425 681.159C396.064 678.832 391.537 681.324 383.785 692.551C352.638 737.646 284.056 724.351 273.528 671.177L272.671 666.856L279.958 665.155C301.375 660.167 325.616 642.22 333.04 625.855C340.507 609.396 321.131 597.156 309.059 610.704C288.625 633.634 281.73 637.206 257.864 637.206C220.335 637.206 194.439 608.952 197.913 571.802C198.918 561.096 196.274 557.395 183.582 551.771C112.166 520.121 155.174 428.318 231.979 448.467C243.777 451.569 246.997 451.155 252.407 445.872C263.163 435.353 257.251 424.705 237.971 419.867C207.58 412.242 174.809 418.042 147.586 435.865C141.727 439.701 132.663 421.159 131.574 403.103C130.405 383.688 136.555 369.649 152.959 354.281C160.97 346.781 161.139 342.599 154.027 327.966C139.146 297.329 152.229 261.957 183.588 248.062C196.268 242.443 198.918 238.742 197.918 228.032C195.232 199.374 211.731 173.607 238.531 164.597C242.873 163.134 246.553 162.095 246.701 162.286C246.855 162.472 250.022 168.479 253.75 175.623C272.798 212.173 314.331 233.351 319.106 208.942C320.656 201.008 317.858 197.007 304.95 188.695C243.835 149.338 282.132 61.7477 351.327 82.6411Z" fill="#333333"/>
<path d="M321.474 50.6962C281.004 56.9352 250.206 85.6185 243.612 123.218L241.957 132.642L230.651 136.182C194.956 147.368 170.477 177.034 167.379 212.855L166.517 222.863L159.415 226.936C125.793 246.242 108.247 292.682 120.97 328.679L124.555 338.816L118.284 347.143C93.9054 379.501 93.9054 420.337 118.284 452.696L124.555 461.018L120.975 471.154C108.125 507.508 124.92 551.968 159.33 572.701L166.517 577.027L167.379 587.009C168.881 604.377 175.631 620.917 186.772 634.527C197.913 648.137 212.941 658.202 229.948 663.444L241.952 667.166L243.607 676.61C255.389 743.741 340.189 772.858 391.806 727.499L399.13 721.064L406.322 727.386C458.045 772.843 542.861 743.803 554.654 676.61L556.304 667.171L568.308 663.449C603.31 652.594 627.804 622.536 630.909 586.637L631.744 576.971L638.841 572.897C673.785 552.831 690.574 505.472 676.085 467.841L673.547 461.23L679.892 452.799C704.361 420.327 704.392 379.548 679.977 347.143L673.705 338.821L677.285 328.679C690.009 292.682 672.463 246.242 638.841 226.936L631.744 222.863L630.877 212.855C629.362 195.488 622.608 178.951 611.47 165.338C600.333 151.726 585.313 141.651 568.313 136.389L556.309 132.667L554.649 123.229C542.867 56.0514 458.029 27.0114 406.322 72.4477L399.13 78.7746L391.806 72.334C373.959 56.651 343.547 47.2949 321.474 50.6962ZM350.58 82.6411C363.404 86.5076 374.519 94.9487 383.039 107.287C394.672 124.123 403.588 124.123 415.222 107.287C448.696 58.822 526.733 80.346 526.421 137.955C526.331 154.92 495.802 200.243 484.47 200.243C475.205 200.243 476.495 220.8 486.072 225.639C499.932 232.648 533.808 202.698 548.287 170.629C550.27 166.23 552.047 162.472 552.237 162.286C553.226 161.283 569.223 167.817 574.548 171.399C593.257 183.986 602.892 204.43 601.025 227.598C600.126 238.799 602.665 242.407 615.42 248.067C646.778 261.962 659.861 297.328 644.98 327.966C637.868 342.604 638.037 346.781 646.048 354.281C669.247 376.012 674.536 404.907 659.85 429.734L656.371 435.617L651.226 431.099C628.053 410.764 596.975 404.84 563.363 414.362C538.372 421.443 531.397 429.181 538.277 442.192C542.602 450.359 548.858 450.68 568.424 443.722C642.363 417.427 686.994 520.049 615.42 551.771C602.659 557.426 600.121 561.034 601.025 572.241C605.748 630.925 529.371 663.17 496.638 616.307C487.13 602.692 479.452 599.011 470.409 603.736C449.653 614.596 483.048 656.362 519.604 665.264L526.045 666.835L524.845 673.219C515.242 724.3 445.629 736.576 415.222 692.551C409.871 684.803 407.152 682.125 403.678 681.159C395.318 678.832 390.791 681.324 383.039 692.551C351.892 737.646 283.31 724.351 272.781 671.177L271.925 666.856L279.212 665.155C300.629 660.167 324.869 642.22 332.294 625.855C339.761 609.396 320.385 597.156 308.312 610.704C287.879 633.634 280.983 637.206 257.118 637.206C219.588 637.206 193.692 608.952 197.167 571.802C198.171 561.096 195.527 557.395 182.836 551.771C111.42 520.121 154.428 428.318 231.233 448.467C243.03 451.569 246.251 451.155 251.661 445.872C262.417 435.353 256.504 424.705 237.224 419.867C206.833 412.242 174.063 418.042 146.84 435.865C140.98 439.7 131.916 421.159 130.827 403.103C129.658 383.688 135.808 369.649 152.212 354.281C160.224 346.781 160.393 342.599 153.28 327.966C138.4 297.328 151.482 261.956 182.841 248.062C195.522 242.443 198.171 238.742 197.172 228.032C194.485 199.374 210.984 173.607 237.785 164.597C242.126 163.134 245.807 162.095 245.955 162.286C246.108 162.472 249.276 168.479 253.004 175.622C272.052 212.173 313.584 233.351 318.36 208.942C319.909 201.008 317.112 197.007 304.203 188.695C243.089 149.338 281.385 61.7477 350.58 82.6411Z" fill="#333333"/>
<path d="M243.612 138.5L254.18 149.145L254.574 148.754L254.938 148.334L243.612 138.5ZM556.309 138.5L568.273 129.452L567.882 128.935L567.448 128.454L556.309 138.5ZM642.247 554.5L654.597 563.012L655.699 561.414L656.357 559.589L642.247 554.5ZM251.661 665.264L262.528 654.925L262.038 654.41L261.502 653.943L251.661 665.264ZM354.747 716.5L357.39 731.265L357.642 731.22L357.894 731.166L354.747 716.5ZM399.877 83.6401L397.506 98.4515L399.556 98.7796L401.618 98.5387L399.877 83.6401ZM687.247 429.734L701.357 434.824L702.812 430.788L701.914 426.594L687.247 429.734ZM121.247 394.5L106.472 391.911L106.028 394.442L106.452 396.976L121.247 394.5ZM399.877 716.748L410.73 706.393L399.877 695.02L389.025 706.393L399.877 716.748ZM407.572 724.812L397.844 736.23L418.424 714.457L407.572 724.812ZM399.877 718.257L409.604 706.839L399.877 698.553L390.15 706.839L399.877 718.257ZM392.183 724.812L381.331 714.457L401.91 736.23L392.183 724.812ZM389.243 110.952L378.758 121.679L378.758 121.679L389.243 110.952ZM410.506 110.952L420.992 121.679L420.992 121.679L410.506 110.952ZM410.459 680.942L399.974 691.668L399.974 691.668L410.459 680.942ZM389.29 680.942L399.776 691.668L399.776 691.668L389.29 680.942ZM399.131 716.748L409.983 706.393L399.131 695.019L388.278 706.393L399.131 716.748ZM406.825 724.812L397.098 736.23L417.677 714.457L406.825 724.812ZM399.131 718.257L408.858 706.839L399.131 698.553L389.404 706.839L399.131 718.257ZM391.437 724.812L380.584 714.457L401.164 736.23L391.437 724.812ZM388.496 110.952L378.011 121.679L378.011 121.679L388.496 110.952ZM409.76 110.952L420.245 121.679L420.245 121.679L409.76 110.952ZM409.712 680.942L399.227 691.668L399.227 691.668L409.712 680.942ZM388.544 680.942L399.029 691.668L399.029 691.668L388.544 680.942ZM291.247 83.6401L286.969 69.2629L282.783 70.5083L279.92 73.8056L291.247 83.6401ZM651.972 265L666.639 261.859L665.943 258.606L663.936 255.952L651.972 265ZM141.747 517L126.952 519.476L127.39 522.093L128.7 524.402L141.747 517ZM308.312 724.812L297.445 735.151L303.009 740.999L310.955 739.577L308.312 724.812ZM585.247 637.206L595.487 648.167L596.675 647.057L597.597 645.718L585.247 637.206ZM403.678 706L408.527 691.805L404.594 690.462L400.531 691.334L403.678 706ZM482.715 733L477.866 747.195L486.38 750.103L492.955 743.961L482.715 733ZM141.747 277.5L129.172 269.322L127.501 271.892L126.972 274.911L141.747 277.5ZM211.247 170.629L200.679 159.984L199.544 161.111L198.672 162.452L211.247 170.629ZM496.638 72.334L507.777 62.2882L502.59 56.5364L494.897 57.4353L496.638 72.334ZM329.247 72.334L331.618 57.5225L328.244 56.9825L324.969 57.9568L329.247 72.334ZM200.747 621L187.7 628.402L188.967 630.635L190.905 632.32L200.747 621ZM687.247 429.734L673.136 424.645L628.136 549.411L642.247 554.5L656.357 559.589L701.357 434.824L687.247 429.734ZM384.484 106.3L373.998 117.027L378.758 121.679L389.243 110.952L399.728 100.226L394.969 95.5737L384.484 106.3ZM389.243 110.952L378.758 121.679C384.18 126.98 391.386 130.899 399.875 130.899C408.364 130.899 415.569 126.98 420.992 121.679L410.506 110.952L400.021 100.226C399.351 100.881 398.982 101.052 398.989 101.048C398.997 101.045 399.087 101.004 399.255 100.966C399.426 100.927 399.638 100.899 399.875 100.899C400.112 100.899 400.323 100.927 400.494 100.966C400.662 101.004 400.753 101.045 400.76 101.048C400.767 101.052 400.398 100.881 399.728 100.226L389.243 110.952ZM410.506 110.952L420.992 121.679L425.751 117.027L415.266 106.3L404.781 95.5737L400.021 100.226L410.506 110.952ZM415.165 685.542L425.65 674.816L420.944 670.215L410.459 680.942L399.974 691.668L404.68 696.269L415.165 685.542ZM410.459 680.942L420.944 670.215C418.713 668.034 415.668 665.283 411.504 663.473C407.142 661.578 403.031 661.341 399.877 661.341V676.341V691.341C400.267 691.341 400.522 691.35 400.681 691.359C400.838 691.368 400.862 691.376 400.792 691.365C400.716 691.354 400.546 691.324 400.31 691.259C400.069 691.192 399.809 691.102 399.546 690.987C399.285 690.874 399.077 690.761 398.93 690.672C398.789 690.587 398.73 690.54 398.764 690.566C398.802 690.594 398.916 690.685 399.126 690.871C399.337 691.058 399.612 691.315 399.974 691.668L410.459 680.942ZM399.877 676.341V661.341C396.722 661.341 392.608 661.577 388.244 663.474C384.077 665.284 381.032 668.038 378.805 670.215L389.29 680.942L399.776 691.668C400.138 691.314 400.414 691.057 400.625 690.87C400.835 690.683 400.949 690.592 400.987 690.564C401.021 690.538 400.961 690.586 400.82 690.671C400.672 690.76 400.463 690.874 400.202 690.987C399.938 691.102 399.678 691.192 399.436 691.259C399.201 691.325 399.03 691.354 398.955 691.366C398.885 691.376 398.911 691.369 399.068 691.359C399.229 691.35 399.485 691.341 399.877 691.341V676.341ZM389.29 680.942L378.805 670.215L374.099 674.816L384.584 685.542L395.069 696.269L399.776 691.668L389.29 680.942ZM392.183 724.812L403.035 735.167L410.73 727.103L399.877 716.748L389.025 706.393L381.331 714.457L392.183 724.812ZM399.877 716.748L389.025 727.103L396.719 735.167L407.572 724.812L418.424 714.457L410.73 706.393L399.877 716.748ZM407.572 724.812L417.299 713.393L409.604 706.839L399.877 718.257L390.15 729.676L397.844 736.23L407.572 724.812ZM399.877 718.257L390.15 706.839L382.456 713.393L392.183 724.812L401.91 736.23L409.604 729.676L399.877 718.257ZM383.737 106.3L373.252 117.027L378.011 121.679L388.496 110.952L398.982 100.226L394.222 95.5737L383.737 106.3ZM388.496 110.952L378.011 121.679C383.434 126.98 390.639 130.899 399.128 130.899C407.617 130.899 414.822 126.98 420.245 121.679L409.76 110.952L399.275 100.226C398.605 100.881 398.235 101.052 398.243 101.048C398.25 101.045 398.341 101.004 398.509 100.966C398.679 100.927 398.891 100.899 399.128 100.899C399.365 100.899 399.577 100.927 399.748 100.966C399.916 101.004 400.006 101.045 400.013 101.048C400.021 101.052 399.651 100.881 398.982 100.226L388.496 110.952ZM409.76 110.952L420.245 121.679L425.004 117.027L414.519 106.3L404.034 95.5737L399.275 100.226L409.76 110.952ZM414.419 685.542L424.904 674.816L420.198 670.215L409.712 680.942L399.227 691.668L403.934 696.269L414.419 685.542ZM409.712 680.942L420.198 670.215C417.967 668.034 414.921 665.283 410.757 663.473C406.396 661.578 402.284 661.341 399.131 661.341V676.341V691.341C399.521 691.341 399.776 691.35 399.935 691.359C400.091 691.368 400.116 691.376 400.046 691.365C399.97 691.354 399.799 691.324 399.563 691.259C399.323 691.192 399.062 691.101 398.8 690.987C398.539 690.874 398.331 690.761 398.184 690.672C398.043 690.587 397.984 690.54 398.018 690.566C398.055 690.594 398.17 690.685 398.38 690.871C398.59 691.058 398.865 691.315 399.227 691.668L409.712 680.942ZM399.131 676.341V661.341C395.976 661.341 391.861 661.577 387.498 663.473C383.331 665.284 380.286 668.038 378.059 670.215L388.544 680.942L399.029 691.668C399.392 691.314 399.667 691.057 399.878 690.87C400.088 690.683 400.203 690.592 400.24 690.564C400.274 690.538 400.215 690.586 400.073 690.671C399.926 690.76 399.717 690.874 399.455 690.987C399.192 691.102 398.931 691.192 398.69 691.259C398.454 691.325 398.284 691.354 398.208 691.366C398.139 691.376 398.164 691.369 398.322 691.359C398.483 691.35 398.739 691.341 399.131 691.341V676.341ZM388.544 680.942L378.059 670.215L373.352 674.816L383.838 685.542L394.323 696.269L399.029 691.668L388.544 680.942ZM391.437 724.812L402.289 735.167L409.983 727.103L399.131 716.748L388.278 706.393L380.584 714.457L391.437 724.812ZM399.131 716.748L388.278 727.103L395.973 735.167L406.825 724.812L417.677 714.457L409.983 706.393L399.131 716.748ZM406.825 724.812L416.552 713.393L408.858 706.839L399.131 718.257L389.404 729.676L397.098 736.23L406.825 724.812ZM399.131 718.257L389.404 706.839L381.71 713.393L391.437 724.812L401.164 736.23L408.858 729.676L399.131 718.257ZM243.612 138.5L254.938 148.334L302.573 93.4745L291.247 83.6401L279.92 73.8056L232.286 128.666L243.612 138.5ZM556.309 138.5L544.345 147.548L640.008 274.048L651.972 265L663.936 255.952L568.273 129.452L556.309 138.5ZM651.972 265L637.304 268.141L672.579 432.875L687.247 429.734L701.914 426.594L666.639 261.859L651.972 265ZM141.747 517L156.541 514.524L136.041 392.024L121.247 394.5L106.452 396.976L126.952 519.476L141.747 517ZM354.747 716.5L352.104 701.735L305.669 710.046L308.312 724.812L310.955 739.577L357.39 731.265L354.747 716.5ZM308.312 724.812L319.18 714.473L262.528 654.925L251.661 665.264L240.793 675.603L297.445 735.151L308.312 724.812ZM642.247 554.5L629.896 545.988L572.896 628.694L585.247 637.206L597.597 645.718L654.597 563.012L642.247 554.5ZM403.678 706L400.531 691.334L351.599 701.834L354.747 716.5L357.894 731.166L406.825 720.666L403.678 706ZM585.247 637.206L575.006 626.245L472.474 722.039L482.715 733L492.955 743.961L595.487 648.167L585.247 637.206ZM482.715 733L487.564 718.805L408.527 691.805L403.678 706L398.829 720.195L477.866 747.195L482.715 733ZM121.247 394.5L136.021 397.089L156.522 280.089L141.747 277.5L126.972 274.911L106.472 391.911L121.247 394.5ZM141.747 277.5L154.321 285.678L223.821 178.807L211.247 170.629L198.672 162.452L129.172 269.322L141.747 277.5ZM211.247 170.629L221.814 181.275L254.18 149.145L243.612 138.5L233.044 127.855L200.679 159.984L211.247 170.629ZM399.877 83.6401L401.618 98.5387L498.379 87.2326L496.638 72.334L494.897 57.4353L398.136 68.7414L399.877 83.6401ZM496.638 72.334L485.499 82.3797L545.17 148.546L556.309 138.5L567.448 128.454L507.777 62.2882L496.638 72.334ZM291.247 83.6401L295.524 98.0172L333.524 86.7111L329.247 72.334L324.969 57.9568L286.969 69.2629L291.247 83.6401ZM329.247 72.334L326.876 87.1454L397.506 98.4515L399.877 83.6401L402.248 68.8286L331.618 57.5225L329.247 72.334ZM251.661 665.264L261.502 653.943L210.588 609.68L200.747 621L190.905 632.32L241.819 676.584L251.661 665.264ZM200.747 621L213.793 613.598L154.793 509.598L141.747 517L128.7 524.402L187.7 628.402L200.747 621ZM322.221 50.6962L317.652 21.0461L317.65 21.0464L322.221 50.6962ZM244.359 123.218L273.906 128.408L273.908 128.401L244.359 123.218ZM242.703 132.642L251.669 161.27L269.092 155.814L272.251 137.832L242.703 132.642ZM231.397 136.182L222.431 107.554L222.426 107.555L231.397 136.182ZM168.125 212.855L138.237 210.27L138.236 210.281L168.125 212.855ZM167.263 222.863L182.189 248.886L195.805 241.077L197.152 225.437L167.263 222.863ZM160.161 226.936L145.236 200.912L145.229 200.916L145.222 200.92L160.161 226.936ZM121.717 328.679L93.4313 338.676L93.4336 338.683L121.717 328.679ZM125.302 338.816L149.266 356.864L158.956 343.997L153.585 328.812L125.302 338.816ZM119.03 347.143L142.991 365.195L142.994 365.191L119.03 347.143ZM119.03 452.696L95.0691 470.747L95.0718 470.751L119.03 452.696ZM125.302 461.018L153.589 471.009L158.953 455.824L149.26 442.963L125.302 461.018ZM121.722 471.154L150.007 481.152L150.009 481.145L121.722 471.154ZM160.077 572.701L144.594 598.397L144.603 598.403L160.077 572.701ZM167.263 577.028L197.152 574.446L195.836 559.212L182.736 551.326L167.263 577.028ZM168.125 587.009L138.236 589.59L138.237 589.594L168.125 587.009ZM230.694 663.444L239.578 634.79L239.554 634.782L239.531 634.775L230.694 663.444ZM242.698 667.166L272.248 661.987L269.084 643.938L251.582 638.511L242.698 667.166ZM244.353 676.61L214.804 681.789L214.805 681.796L244.353 676.61ZM392.553 727.499L372.751 704.963L372.75 704.964L392.553 727.499ZM399.877 721.064L419.683 698.532L399.881 681.124L380.075 698.528L399.877 721.064ZM407.069 727.386L387.262 749.918L387.264 749.92L407.069 727.386ZM555.4 676.61L584.949 681.796L584.951 681.786L584.952 681.775L555.4 676.61ZM557.05 667.171L548.166 638.517L530.655 643.946L527.498 662.005L557.05 667.171ZM569.054 663.449L577.938 692.104L577.941 692.103L569.054 663.449ZM631.655 586.637L661.544 589.221L661.544 589.22L631.655 586.637ZM632.491 576.971L617.557 550.952L603.953 558.76L602.602 574.387L632.491 576.971ZM639.587 572.897L654.521 598.916L654.527 598.913L639.587 572.897ZM676.831 467.841L648.825 478.594L648.83 478.607L648.835 478.621L676.831 467.841ZM674.293 461.23L650.324 443.188L640.329 456.467L646.286 471.983L674.293 461.23ZM680.639 452.799L656.679 434.745L656.675 434.751L656.67 434.758L680.639 452.799ZM680.723 347.143L704.684 329.09L704.682 329.088L680.723 347.143ZM674.452 338.821L646.163 328.834L640.803 344.017L650.493 356.876L674.452 338.821ZM678.032 328.679L649.747 318.682L649.743 318.693L678.032 328.679ZM639.587 226.936L654.526 200.92L654.521 200.917L639.587 226.936ZM632.491 222.863L602.603 225.453L603.956 241.075L617.557 248.882L632.491 222.863ZM631.623 212.855L661.511 210.265L661.511 210.257L661.51 210.248L631.623 212.855ZM569.06 136.389L560.175 165.044L560.182 165.046L560.189 165.048L569.06 136.389ZM557.056 132.667L527.509 137.865L530.682 155.899L548.171 161.322L557.056 132.667ZM555.395 123.229L525.846 128.411L525.847 128.419L525.849 128.427L555.395 123.229ZM407.069 72.4477L387.266 49.912L387.26 49.9177L387.253 49.9234L407.069 72.4477ZM399.877 78.7746L380.066 101.303L399.881 118.728L419.692 101.299L399.877 78.7746ZM392.553 72.334L412.364 49.8057L412.355 49.7983L392.553 72.334ZM351.327 82.6411L342.655 111.36L342.666 111.364L351.327 82.6411ZM383.785 107.287L359.098 124.333L359.104 124.342L383.785 107.287ZM415.969 107.287L440.649 124.342L440.653 124.336L415.969 107.287ZM527.167 137.955L497.168 137.793L497.168 137.796L527.167 137.955ZM486.819 225.639L500.357 198.867L500.347 198.862L486.819 225.639ZM549.033 170.629L576.376 182.974L576.379 182.966L576.383 182.958L549.033 170.629ZM552.984 162.286L573.954 183.74L574.151 183.547L574.345 183.351L552.984 162.286ZM575.294 171.399L592.04 146.508L592.039 146.507L575.294 171.399ZM601.772 227.598L571.869 225.188L571.868 225.198L601.772 227.598ZM616.166 248.067L603.998 275.489L604.005 275.492L604.013 275.495L616.166 248.067ZM645.727 327.966L672.71 341.076L672.712 341.073L645.727 327.966ZM646.795 354.281L667.304 332.387L667.298 332.381L646.795 354.281ZM660.597 429.735L686.418 445.008L686.418 445.008L660.597 429.735ZM657.117 435.617L637.323 458.16L664.515 482.036L682.938 450.89L657.117 435.617ZM651.972 431.099L671.766 408.556L671.76 408.55L651.972 431.099ZM564.11 414.362L555.933 385.497L555.931 385.498L564.11 414.362ZM539.023 442.192L512.503 456.216L512.507 456.225L512.512 456.233L539.023 442.192ZM569.171 443.722L579.222 471.988L579.223 471.988L569.171 443.722ZM616.166 551.771L628.321 579.199L628.322 579.198L616.166 551.771ZM601.772 572.241L631.675 569.835L631.675 569.828L601.772 572.241ZM497.384 616.307L472.788 633.484L472.79 633.486L497.384 616.307ZM471.155 603.736L457.263 577.147L457.255 577.151L457.247 577.155L471.155 603.736ZM520.351 665.264L527.462 636.119L527.448 636.115L520.351 665.264ZM526.792 666.835L556.275 672.379L561.53 644.431L533.903 637.69L526.792 666.835ZM525.591 673.219L496.108 667.675L496.108 667.676L525.591 673.219ZM415.969 692.551L391.284 709.6L391.284 709.6L415.969 692.551ZM404.425 681.159L396.383 710.061L396.383 710.061L404.425 681.159ZM383.785 692.551L408.469 709.601L408.472 709.597L383.785 692.551ZM273.528 671.177L302.956 665.35L302.955 665.344L273.528 671.177ZM272.671 666.856L265.853 637.641L237.603 644.234L243.244 672.689L272.671 666.856ZM279.958 665.155L273.153 635.937L273.14 635.94L279.958 665.155ZM333.04 625.855L305.72 613.46L305.72 613.46L333.04 625.855ZM309.059 610.704L331.456 630.663L331.456 630.663L309.059 610.704ZM197.913 571.802L168.044 568.998L168.043 569.008L197.913 571.802ZM183.582 551.771L171.427 579.199L171.428 579.199L183.582 551.771ZM231.979 448.467L239.606 419.453L239.599 419.451L239.592 419.449L231.979 448.467ZM252.407 445.872L273.367 467.336L273.375 467.328L273.383 467.321L252.407 445.872ZM237.971 419.867L245.272 390.769L245.271 390.769L237.971 419.867ZM147.586 435.865L164.017 460.965L164.018 460.964L147.586 435.865ZM131.574 403.103L101.628 404.906L101.628 404.91L131.574 403.103ZM152.959 354.281L132.456 332.381L132.448 332.388L152.959 354.281ZM154.027 327.966L127.042 341.073L127.045 341.08L154.027 327.966ZM183.588 248.062L195.741 275.49L195.741 275.49L183.588 248.062ZM197.918 228.032L227.789 225.244L227.787 225.232L197.918 228.032ZM238.531 164.597L248.091 193.033L248.1 193.03L248.11 193.026L238.531 164.597ZM246.701 162.286L222.979 180.651L223.259 181.013L223.55 181.365L246.701 162.286ZM253.75 175.623L280.354 161.758L280.35 161.75L280.346 161.743L253.75 175.623ZM319.106 208.942L348.548 214.702L348.55 214.692L319.106 208.942ZM304.95 188.695L288.707 213.917L288.708 213.918L304.95 188.695ZM321.474 50.6962L316.905 21.0461L316.903 21.0464L321.474 50.6962ZM243.612 123.218L273.16 128.408L273.161 128.401L243.612 123.218ZM241.957 132.642L250.923 161.27L268.346 155.814L271.505 137.832L241.957 132.642ZM230.651 136.182L221.685 107.554L221.68 107.555L230.651 136.182ZM167.379 212.855L137.49 210.27L137.489 210.281L167.379 212.855ZM166.517 222.863L181.442 248.886L195.059 241.077L196.406 225.437L166.517 222.863ZM159.415 226.936L144.489 200.912L144.482 200.916L144.476 200.92L159.415 226.936ZM120.97 328.679L92.6848 338.676L92.6871 338.683L120.97 328.679ZM124.555 338.816L148.519 356.864L158.209 343.997L152.838 328.812L124.555 338.816ZM118.284 347.143L142.245 365.195L142.247 365.191L118.284 347.143ZM118.284 452.696L94.3226 470.747L94.3253 470.751L118.284 452.696ZM124.555 461.018L152.843 471.008L158.206 455.823L148.514 442.962L124.555 461.018ZM120.975 471.154L149.26 481.152L149.263 481.145L120.975 471.154ZM159.33 572.701L143.847 598.397L143.857 598.403L159.33 572.701ZM166.517 577.027L196.405 574.446L195.09 559.212L181.99 551.326L166.517 577.027ZM167.379 587.009L137.49 589.59L137.49 589.594L167.379 587.009ZM229.948 663.444L238.831 634.79L238.808 634.782L238.784 634.775L229.948 663.444ZM241.952 667.166L271.501 661.987L268.338 643.938L250.836 638.511L241.952 667.166ZM243.607 676.61L214.057 681.789L214.058 681.796L243.607 676.61ZM391.806 727.499L372.004 704.963L372.003 704.964L391.806 727.499ZM399.13 721.064L418.937 698.532L399.134 681.124L379.328 698.528L399.13 721.064ZM406.322 727.386L386.516 749.918L386.518 749.92L406.322 727.386ZM554.654 676.61L584.202 681.796L584.204 681.785L584.206 681.775L554.654 676.61ZM556.304 667.171L547.42 638.517L529.909 643.946L526.752 662.005L556.304 667.171ZM568.308 663.449L577.192 692.104L577.194 692.103L568.308 663.449ZM630.909 586.637L660.797 589.221L660.797 589.22L630.909 586.637ZM631.744 576.971L616.81 550.952L603.206 558.76L601.856 574.387L631.744 576.971ZM638.841 572.897L653.775 598.916L653.78 598.913L638.841 572.897ZM676.085 467.841L648.078 478.594L648.083 478.607L648.089 478.621L676.085 467.841ZM673.547 461.23L649.578 443.188L639.583 456.467L645.54 471.982L673.547 461.23ZM679.892 452.799L655.933 434.745L655.928 434.751L655.923 434.758L679.892 452.799ZM679.977 347.143L703.937 329.09L703.935 329.088L679.977 347.143ZM673.705 338.821L645.416 328.834L640.057 344.017L649.747 356.876L673.705 338.821ZM677.285 328.679L649 318.682L648.996 318.693L677.285 328.679ZM638.841 226.936L653.78 200.92L653.775 200.917L638.841 226.936ZM631.744 222.863L601.856 225.453L603.21 241.075L616.81 248.881L631.744 222.863ZM630.877 212.855L660.765 210.265L660.764 210.257L660.763 210.248L630.877 212.855ZM568.313 136.389L559.429 165.044L559.436 165.046L559.443 165.048L568.313 136.389ZM556.309 132.667L526.763 137.865L529.935 155.899L547.425 161.322L556.309 132.667ZM554.649 123.229L525.1 128.411L525.101 128.419L525.102 128.427L554.649 123.229ZM406.322 72.4477L386.52 49.912L386.513 49.9177L386.507 49.9234L406.322 72.4477ZM399.13 78.7746L379.319 101.303L399.134 118.728L418.946 101.299L399.13 78.7746ZM391.806 72.334L411.617 49.8057L411.609 49.7983L391.806 72.334ZM350.58 82.6411L341.908 111.36L341.92 111.364L350.58 82.6411ZM383.039 107.287L358.351 124.333L358.358 124.342L383.039 107.287ZM415.222 107.287L439.903 124.342L439.907 124.336L415.222 107.287ZM526.421 137.955L496.421 137.793L496.421 137.796L526.421 137.955ZM486.072 225.639L499.611 198.867L499.6 198.862L486.072 225.639ZM548.287 170.629L575.629 182.974L575.633 182.966L575.636 182.958L548.287 170.629ZM552.237 162.286L573.208 183.74L573.405 183.547L573.598 183.351L552.237 162.286ZM574.548 171.399L591.293 146.508L591.292 146.507L574.548 171.399ZM601.025 227.598L571.122 225.188L571.122 225.198L601.025 227.598ZM615.42 248.067L603.251 275.488L603.259 275.492L603.267 275.495L615.42 248.067ZM644.98 327.966L671.964 341.076L671.966 341.073L644.98 327.966ZM646.048 354.281L666.557 332.387L666.551 332.381L646.048 354.281ZM659.85 429.734L685.671 445.008L685.672 445.008L659.85 429.734ZM656.371 435.617L636.577 458.16L663.769 482.036L682.192 450.89L656.371 435.617ZM651.226 431.099L671.019 408.556L671.013 408.55L651.226 431.099ZM563.363 414.362L555.187 385.497L555.185 385.498L563.363 414.362ZM538.277 442.192L511.756 456.216L511.761 456.225L511.765 456.233L538.277 442.192ZM568.424 443.722L578.475 471.988L578.476 471.988L568.424 443.722ZM615.42 551.771L627.575 579.199L627.576 579.198L615.42 551.771ZM601.025 572.241L630.929 569.835L630.928 569.828L601.025 572.241ZM496.638 616.307L472.042 633.484L472.044 633.486L496.638 616.307ZM470.409 603.736L456.517 577.146L456.509 577.151L456.501 577.155L470.409 603.736ZM519.604 665.264L526.715 636.118L526.702 636.115L519.604 665.264ZM526.045 666.835L555.528 672.379L560.784 644.431L533.156 637.69L526.045 666.835ZM524.845 673.219L495.361 667.675L495.361 667.676L524.845 673.219ZM415.222 692.551L390.537 709.6L390.537 709.6L415.222 692.551ZM403.678 681.159L395.637 710.061L395.637 710.061L403.678 681.159ZM383.039 692.551L407.723 709.601L407.725 709.597L383.039 692.551ZM272.781 671.177L302.21 665.35L302.209 665.344L272.781 671.177ZM271.925 666.856L265.107 637.641L236.856 644.234L242.497 672.689L271.925 666.856ZM279.212 665.155L272.407 635.937L272.394 635.94L279.212 665.155ZM332.294 625.855L304.974 613.46L304.974 613.46L332.294 625.855ZM308.312 610.704L330.71 630.663L330.71 630.663L308.312 610.704ZM197.167 571.802L167.298 568.998L167.297 569.008L197.167 571.802ZM182.836 551.771L170.68 579.199L170.682 579.199L182.836 551.771ZM231.233 448.467L238.86 419.453L238.853 419.451L238.845 419.449L231.233 448.467ZM251.661 445.872L272.62 467.336L272.628 467.328L272.636 467.321L251.661 445.872ZM237.224 419.867L244.526 390.769L244.524 390.768L237.224 419.867ZM146.84 435.865L163.27 460.965L163.272 460.964L146.84 435.865ZM130.827 403.103L100.881 404.906L100.882 404.91L130.827 403.103ZM152.212 354.281L131.709 332.381L131.702 332.388L152.212 354.281ZM153.28 327.966L126.295 341.073L126.299 341.08L153.28 327.966ZM182.841 248.062L194.994 275.49L194.994 275.49L182.841 248.062ZM197.172 228.032L227.042 225.244L227.041 225.232L197.172 228.032ZM237.785 164.597L247.344 193.033L247.354 193.03L247.364 193.026L237.785 164.597ZM245.955 162.286L222.233 180.651L222.513 181.013L222.803 181.365L245.955 162.286ZM253.004 175.622L279.608 161.758L279.604 161.75L279.6 161.743L253.004 175.622ZM318.36 208.942L347.801 214.702L347.803 214.692L318.36 208.942ZM304.203 188.695L287.96 213.917L287.962 213.918L304.203 188.695ZM322.221 50.6962L317.65 21.0464C265.717 29.0528 223.836 66.5706 214.81 118.036L244.359 123.218L273.908 128.401C278.07 104.666 297.785 84.8177 326.792 80.3459L322.221 50.6962ZM244.359 123.218L214.811 118.028L213.156 127.452L242.703 132.642L272.251 137.832L273.906 128.408L244.359 123.218ZM242.703 132.642L233.737 104.013L222.431 107.554L231.397 136.182L240.363 164.811L251.669 161.27L242.703 132.642ZM231.397 136.182L222.426 107.555C175.738 122.186 142.438 161.702 138.237 210.27L168.125 212.855L198.013 215.441C200.01 192.366 215.667 172.55 240.368 164.81L231.397 136.182ZM168.125 212.855L138.236 210.281L137.374 220.288L167.263 222.863L197.152 225.437L198.014 215.43L168.125 212.855ZM167.263 222.863L152.338 196.839L145.236 200.912L160.161 226.936L175.087 252.96L182.189 248.886L167.263 222.863ZM160.161 226.936L145.222 200.92C99.332 227.271 75.7728 288.715 93.4313 338.676L121.717 328.679L150.002 318.682C142.214 296.648 153.747 265.214 175.1 252.952L160.161 226.936ZM121.717 328.679L93.4336 338.683L97.0189 348.819L125.302 338.816L153.585 328.812L149.999 318.675L121.717 328.679ZM125.302 338.816L101.338 320.767L95.0664 329.095L119.03 347.143L142.994 365.191L149.266 356.864L125.302 338.816ZM119.03 347.143L95.0691 329.091C62.639 372.137 62.639 427.701 95.0691 470.747L119.03 452.696L142.991 434.644C126.665 412.973 126.665 386.865 142.991 365.195L119.03 347.143ZM119.03 452.696L95.0718 470.751L101.343 479.073L125.302 461.018L149.26 442.963L142.989 434.64L119.03 452.696ZM125.302 461.018L97.0143 451.027L93.4343 461.164L121.722 471.154L150.009 481.145L153.589 471.009L125.302 461.018ZM121.722 471.154L93.4368 461.156C75.5545 511.747 98.7342 570.765 144.594 598.397L160.077 572.701L175.559 547.005C152.599 533.171 142.189 503.27 150.007 481.152L121.722 471.154ZM160.077 572.701L144.603 598.403L151.79 602.729L167.263 577.028L182.736 551.326L175.55 546.999L160.077 572.701ZM167.263 577.028L137.374 579.609L138.236 589.59L168.125 587.009L198.014 584.428L197.152 574.446L167.263 577.028ZM168.125 587.009L138.237 589.594C140.264 613.039 149.373 635.289 164.304 653.53L187.518 634.527L210.733 615.524C203.383 606.546 198.99 595.716 198.013 584.424L168.125 587.009ZM187.518 634.527L164.304 653.53C179.23 671.763 199.283 685.155 221.857 692.113L230.694 663.444L239.531 634.775C228.092 631.249 218.089 624.511 210.733 615.524L187.518 634.527ZM230.694 663.444L221.81 692.099L233.814 695.82L242.698 667.166L251.582 638.511L239.578 634.79L230.694 663.444ZM242.698 667.166L213.149 672.345L214.804 681.789L244.353 676.61L273.903 671.431L272.248 661.987L242.698 667.166ZM244.353 676.61L214.805 681.796C230.736 772.569 343.602 810.452 412.356 750.035L392.553 727.499L372.75 704.964C338.269 735.264 281.534 714.912 273.902 671.424L244.353 676.61ZM392.553 727.499L412.355 750.035L419.679 743.6L399.877 721.064L380.075 698.528L372.751 704.963L392.553 727.499ZM399.877 721.064L380.07 743.596L387.262 749.918L407.069 727.386L426.875 704.853L419.683 698.532L399.877 721.064ZM407.069 727.386L387.264 749.92C456.068 810.388 568.994 772.705 584.949 681.796L555.4 676.61L525.852 671.424C518.222 714.901 461.515 735.297 426.873 704.851L407.069 727.386ZM555.4 676.61L584.952 681.775L586.602 672.337L557.05 667.171L527.498 662.005L525.848 671.444L555.4 676.61ZM557.05 667.171L565.934 695.825L577.938 692.104L569.054 663.449L560.17 634.795L548.166 638.517L557.05 667.171ZM569.054 663.449L577.941 692.103C624.331 677.716 657.365 637.541 661.544 589.221L631.655 586.637L601.767 584.052C599.736 607.531 583.781 627.472 560.168 634.796L569.054 663.449ZM631.655 586.637L661.544 589.22L662.379 579.554L632.491 576.971L602.602 574.387L601.766 584.053L631.655 586.637ZM632.491 576.971L647.425 602.989L654.521 598.916L639.587 572.897L624.653 546.879L617.557 550.952L632.491 576.971ZM639.587 572.897L654.527 598.913C702.314 571.471 724.628 508.484 704.828 457.061L676.831 467.841L648.835 478.621C658.014 502.46 646.748 534.191 624.648 546.882L639.587 572.897ZM676.831 467.841L704.838 457.088L702.3 450.477L674.293 461.23L646.286 471.983L648.825 478.594L676.831 467.841ZM674.293 461.23L698.262 479.271L704.608 470.84L680.639 452.799L656.67 434.758L650.324 443.188L674.293 461.23ZM680.639 452.799L704.598 470.853C737.097 427.723 737.175 372.215 704.684 329.09L680.723 347.143L656.763 365.196C673.102 386.881 673.117 412.93 656.679 434.745L680.639 452.799ZM680.723 347.143L704.682 329.088L698.41 320.765L674.452 338.821L650.493 356.876L656.765 365.198L680.723 347.143ZM674.452 338.821L702.741 348.807L706.321 338.665L678.032 328.679L649.743 318.693L646.163 328.834L674.452 338.821ZM678.032 328.679L706.317 338.676C723.976 288.715 700.416 227.271 654.526 200.92L639.587 226.936L624.648 252.952C646.002 265.214 657.534 296.648 649.747 318.682L678.032 328.679ZM639.587 226.936L654.521 200.917L647.425 196.844L632.491 222.863L617.557 248.882L624.653 252.955L639.587 226.936ZM632.491 222.863L662.379 220.273L661.511 210.265L631.623 212.855L601.735 215.446L602.603 225.453L632.491 222.863ZM631.623 212.855L661.51 210.248C659.466 186.815 650.357 164.578 635.436 146.341L612.217 165.339L588.998 184.336C596.352 193.324 600.751 204.161 601.737 215.462L631.623 212.855ZM612.217 165.339L635.436 146.341C620.521 128.113 600.487 114.712 577.93 107.731L569.06 136.389L560.189 165.048C571.632 168.59 581.638 175.34 588.998 184.336L612.217 165.339ZM569.06 136.389L577.944 107.735L565.94 104.013L557.056 132.667L548.171 161.322L560.175 165.044L569.06 136.389ZM557.056 132.667L586.602 127.47L584.941 118.031L555.395 123.229L525.849 128.427L527.509 137.865L557.056 132.667ZM555.395 123.229L584.944 118.046C569.001 27.1443 456.05 -10.5298 387.266 49.912L407.069 72.4477L426.871 94.9834C461.502 64.5527 518.225 84.9584 525.846 128.411L555.395 123.229ZM407.069 72.4477L387.253 49.9234L380.061 56.2503L399.877 78.7746L419.692 101.299L426.884 94.972L407.069 72.4477ZM399.877 78.7746L419.688 56.2463L412.364 49.8057L392.553 72.334L372.742 94.8622L380.066 101.303L399.877 78.7746ZM392.553 72.334L412.355 49.7983C399.616 38.6036 383.551 30.5329 367.793 25.6848C352.127 20.8652 334.31 18.4792 317.652 21.0461L322.221 50.6962L326.79 80.3462C332.204 79.5119 340.63 80.1033 350.15 83.0322C359.577 85.9325 367.642 90.3813 372.75 94.8696L392.553 72.334ZM351.327 82.6411L342.666 111.364C348.199 113.032 353.953 116.882 359.098 124.333L383.785 107.287L408.472 90.242C396.578 73.0158 380.102 59.9831 359.987 53.9183L351.327 82.6411ZM383.785 107.287L359.104 124.342C362.824 129.725 367.515 135.56 373.445 140.263C379.599 145.143 388.551 149.914 399.877 149.914C411.203 149.914 420.155 145.143 426.309 140.263C432.239 135.56 436.93 129.725 440.649 124.342L415.969 107.287L391.288 90.2324C389.19 93.2679 388.404 93.7457 389.027 93.2518C389.873 92.5804 393.688 89.9141 399.877 89.9141C406.065 89.9141 409.88 92.5804 410.727 93.2518C411.35 93.7457 410.563 93.2679 408.466 90.2324L383.785 107.287ZM415.969 107.287L440.653 124.336C449.184 111.985 463.213 108.165 476.261 111.764C489.157 115.32 497.238 124.801 497.168 137.793L527.167 137.955L557.167 138.118C557.408 93.5001 526.627 63.4144 492.214 53.9232C457.953 44.4739 416.227 54.1246 391.284 90.2382L415.969 107.287ZM527.167 137.955L497.168 137.796C497.178 135.892 497.526 135.369 497.087 136.821C496.725 138.02 496.038 139.862 494.913 142.308C492.658 147.212 489.329 153.055 485.525 158.702C481.669 164.427 477.946 169.029 475.192 171.818C473.773 173.256 473.268 173.539 473.693 173.257C473.939 173.095 474.89 172.48 476.479 171.849C477.995 171.247 481.055 170.243 485.216 170.243V200.243V230.243C495.587 230.243 503.402 225.549 506.845 223.267C511.109 220.44 514.849 217.051 517.887 213.974C524.047 207.735 530.087 199.946 535.29 192.22C540.546 184.416 545.575 175.748 549.423 167.381C552.749 160.152 557.108 149.174 557.167 138.114L527.167 137.955ZM485.216 200.243V170.243C469.249 170.243 458.51 180.152 453.545 189.787C449.224 198.171 448.621 206.805 449.011 213.011C449.427 219.62 451.156 226.668 454.471 233.202C457.715 239.596 463.54 247.489 473.291 252.415L486.819 225.639L500.347 198.862C505.309 201.369 507.381 204.878 507.979 206.056C508.649 207.376 508.838 208.377 508.893 209.242C508.922 209.703 509.135 212.896 506.878 217.274C505.63 219.697 503.29 223.069 499.21 225.869C494.891 228.834 489.929 230.243 485.216 230.243V200.243ZM486.819 225.639L473.28 252.41C488.865 260.291 504.309 255.497 512.298 252.029C521.512 248.028 530.153 241.817 537.566 235.263C552.44 222.112 567.225 203.242 576.376 182.974L549.033 170.629L521.691 158.284C516.363 170.086 506.971 182.225 497.823 190.313C493.224 194.38 489.892 196.345 488.404 196.992C485.69 198.17 491.702 194.49 500.357 198.867L486.819 225.639ZM549.033 170.629L576.383 182.958C577.32 180.879 578.18 179.015 578.797 177.712C579.117 177.036 579.306 176.648 579.38 176.501C579.433 176.397 579.341 176.585 579.158 176.919C579.081 177.06 578.828 177.52 578.46 178.117C578.28 178.409 577.924 178.974 577.434 179.665C577.184 180.019 576.807 180.534 576.322 181.135C576.074 181.443 575.762 181.817 575.391 182.233C575.026 182.644 574.544 183.163 573.954 183.74L552.984 162.286L532.013 140.833C530.042 142.76 528.791 144.535 528.488 144.963C527.98 145.679 527.604 146.277 527.399 146.608C526.984 147.282 526.671 147.846 526.523 148.116C526.199 148.708 525.922 149.256 525.75 149.598C525.375 150.346 524.961 151.207 524.564 152.044C523.749 153.766 522.73 155.98 521.684 158.3L549.033 170.629ZM552.984 162.286L574.345 183.351C569.489 188.274 564.207 190.249 561.342 191.065C558.321 191.926 555.82 192.113 554.442 192.164C551.724 192.264 549.702 191.938 549.114 191.841C547.703 191.608 546.947 191.344 547.351 191.468C547.871 191.627 549.208 192.095 551.169 192.896C553.03 193.656 554.963 194.516 556.584 195.304C558.483 196.227 558.982 196.582 558.55 196.291L575.294 171.399L592.039 146.507C586.658 142.887 578.89 139.407 573.857 137.351C571.03 136.196 567.849 134.995 564.925 134.099C563.607 133.695 561.397 133.058 558.901 132.645C557.772 132.458 555.299 132.092 552.236 132.204C550.685 132.261 548.037 132.468 544.897 133.363C541.914 134.213 536.54 136.236 531.623 141.222L552.984 162.286ZM575.294 171.399L558.549 196.291C567.926 202.599 572.897 212.422 571.869 225.188L601.772 227.598L631.675 230.007C634.38 196.438 620.082 165.373 592.04 146.508L575.294 171.399ZM601.772 227.598L571.868 225.198C571.299 232.282 570.85 245.139 579.309 257.168C586.683 267.653 597.759 272.72 603.998 275.489L616.166 248.067L628.335 220.646C627.088 220.093 626.198 219.667 625.563 219.34C624.924 219.012 624.698 218.863 624.74 218.89C624.809 218.935 626.58 220.081 628.388 222.653C630.373 225.475 631.209 228.295 631.493 230.123C631.703 231.478 631.53 231.818 631.676 229.998L601.772 227.598ZM616.166 248.067L604.013 275.495C620.035 282.594 626.114 299.68 618.741 314.859L645.727 327.966L672.712 341.073C695.101 294.977 675.015 241.329 628.319 220.639L616.166 248.067ZM645.727 327.966L618.743 314.855C615.618 321.287 610.109 332.564 610.614 345.017C611.27 361.186 620.967 371.196 626.292 376.182L646.795 354.281L667.298 332.381C666.017 331.182 666.757 331.651 667.794 333.335C668.397 334.314 669.098 335.69 669.65 337.428C670.211 339.192 670.498 340.948 670.565 342.584C670.69 345.672 669.988 347.4 670.216 346.719C670.45 346.019 671.095 344.401 672.71 341.076L645.727 327.966ZM646.795 354.281L626.286 376.176C640.716 389.693 641.309 403.416 634.776 414.461L660.597 429.735L686.418 445.008C709.255 406.399 699.271 362.331 667.304 332.387L646.795 354.281ZM660.597 429.735L634.776 414.461L631.296 420.344L657.117 435.617L682.938 450.89L686.418 445.008L660.597 429.735ZM657.117 435.617L676.911 413.074L671.766 408.556L651.972 431.099L632.178 453.643L637.323 458.16L657.117 435.617ZM651.972 431.099L671.76 408.55C639.818 380.52 597.805 373.636 555.933 385.497L564.11 414.362L572.287 443.226C597.637 436.045 617.781 441.008 632.184 453.648L651.972 431.099ZM564.11 414.362L555.931 385.498C543.464 389.031 527.665 394.504 517.331 405.967C511.091 412.89 506.843 421.946 506.538 432.485C506.259 442.157 509.389 450.328 512.503 456.216L539.023 442.192L565.544 428.168C565.217 427.551 566.639 429.875 566.513 434.216C566.448 436.502 565.956 438.905 564.986 441.202C564.037 443.453 562.847 445.087 561.898 446.14C560.233 447.987 559.351 448.009 561.527 446.978C563.521 446.033 566.906 444.75 572.289 443.225L564.11 414.362ZM539.023 442.192L512.512 456.233C514.872 460.69 518.783 466.57 525.391 471.282C532.367 476.256 539.954 478.239 546.859 478.59C558.196 479.166 570.025 475.259 579.222 471.988L569.171 443.722L559.119 415.456C554.632 417.052 551.702 417.94 549.785 418.402C547.715 418.901 548.115 418.577 549.905 418.668C552.259 418.787 556.248 419.594 560.223 422.428C563.83 425 565.336 427.777 565.534 428.151L539.023 442.192ZM569.171 443.722L579.223 471.988C599.54 464.762 613.774 474.271 619.725 487.955C622.811 495.051 623.054 502.245 621.062 508.007C619.268 513.198 614.905 519.516 604.01 524.345L616.166 551.771L628.322 579.198C653.214 568.166 670.113 549.76 677.77 527.609C685.23 506.029 683.113 483.263 674.746 464.025C657.791 425.041 612.739 396.387 559.118 415.456L569.171 443.722ZM616.166 551.771L604.011 524.344C597.772 527.109 586.685 532.174 579.305 542.667C570.841 554.704 571.298 567.571 571.869 574.654L601.772 572.241L631.675 569.828C631.528 568.006 631.702 568.346 631.492 569.702C631.208 571.531 630.372 574.355 628.384 577.182C626.573 579.758 624.798 580.906 624.728 580.951C624.684 580.979 624.91 580.831 625.55 580.503C626.184 580.177 627.074 579.751 628.321 579.199L616.166 551.771ZM601.772 572.241L571.869 574.647C573.034 589.126 564.55 600.9 551.956 606.216C539.563 611.448 528.596 608.603 521.979 599.128L497.384 616.307L472.79 633.486C498.906 670.875 542.495 675.338 575.292 661.493C607.889 647.731 635.232 614.04 631.675 569.835L601.772 572.241ZM497.384 616.307L521.981 599.131C516.401 591.141 508.452 581.55 497.062 576.091C483.029 569.365 468.833 571.101 457.263 577.147L471.155 603.736L485.048 630.326C484.35 630.69 482.307 631.602 479.224 631.755C475.965 631.918 473.125 631.154 471.129 630.197C469.389 629.364 468.832 628.649 469.393 629.207C469.942 629.753 471.071 631.025 472.788 633.484L497.384 616.307ZM471.155 603.736L457.247 577.155C449.401 581.26 442.574 587.777 438.511 596.694C434.596 605.286 434.257 613.87 435.236 620.848C437.081 634.002 444.077 645.524 450.83 653.969C464.647 671.25 487.586 688.162 513.253 694.412L520.351 665.264L527.448 636.115C516.559 633.464 504.522 625.043 497.692 616.5C494.121 612.033 494.375 610.521 494.654 612.512C494.85 613.908 495.021 617.377 493.11 621.572C491.051 626.091 487.721 628.927 485.064 630.317L471.155 603.736ZM520.351 665.264L513.24 694.409L519.681 695.98L526.792 666.835L533.903 637.69L527.462 636.119L520.351 665.264ZM526.792 666.835L497.308 661.291L496.108 667.675L525.591 673.219L555.074 678.763L556.275 672.379L526.792 666.835ZM525.591 673.219L496.108 667.676C493.949 679.158 485.369 686.89 473.371 689.006C461.258 691.142 448.493 686.854 440.653 675.502L415.969 692.551L391.284 709.6C413.85 742.274 451.096 753.86 483.791 748.094C516.602 742.308 547.63 718.36 555.075 678.762L525.591 673.219ZM415.969 692.551L440.653 675.502C436.008 668.777 427.783 656.518 412.466 652.256L404.425 681.159L396.383 710.061C394.638 709.575 392.87 708.821 391.239 707.819C389.71 706.88 388.77 706.01 388.423 705.668C388.117 705.366 388.207 705.408 388.776 706.134C389.333 706.845 390.133 707.934 391.284 709.6L415.969 692.551ZM404.425 681.159L412.466 652.256C403.824 649.852 391.79 648.661 379.385 655.505C369.595 660.906 363.167 669.613 359.098 675.505L383.785 692.551L408.472 709.597C410.015 707.363 410.835 706.395 411.113 706.094C411.376 705.81 410.465 706.883 408.369 708.04C405.949 709.375 403.074 710.207 400.189 710.345C397.672 710.464 396.169 710.001 396.383 710.061L404.425 681.159ZM383.785 692.551L359.101 675.502C342.262 699.881 308.076 691.205 302.956 665.35L273.528 671.177L244.099 677.004C260.037 757.498 363.014 775.412 408.469 709.601L383.785 692.551ZM273.528 671.177L302.955 665.344L302.098 661.022L272.671 666.856L243.244 672.689L244.1 677.011L273.528 671.177ZM272.671 666.856L279.489 696.071L286.776 694.37L279.958 665.155L273.14 635.94L265.853 637.641L272.671 666.856ZM279.958 665.155L286.763 694.373C302.278 690.76 317.383 682.925 329.597 673.882C341.444 665.111 353.734 652.855 360.36 638.249L333.04 625.855L305.72 613.46C304.922 615.22 301.379 620.119 293.895 625.66C286.779 630.929 279.055 634.562 273.153 635.937L279.958 665.155ZM333.04 625.855L360.36 638.249C370.174 616.617 362.703 593.228 344.4 581.664C326.287 570.221 302.231 573.273 286.661 590.745L309.059 610.704L331.456 630.663C330.174 632.101 327.434 634.115 323.321 634.721C319.429 635.294 315.54 634.403 312.354 632.39C309.162 630.373 306.546 627.141 305.358 623.097C304.104 618.831 304.891 615.288 305.72 613.46L333.04 625.855ZM309.059 610.704L286.661 590.745C276.235 602.445 272.696 605.011 270.956 605.912C270.395 606.203 268.818 607.206 257.864 607.206V637.206V667.206C270.776 667.206 284.58 666.423 298.541 659.195C311.323 652.578 321.449 641.893 331.456 630.663L309.059 610.704ZM257.864 637.206V607.206C246.84 607.206 239.239 603.195 234.628 598.164C230.028 593.146 226.777 585.348 227.783 574.595L197.913 571.802L168.043 569.008C165.575 595.406 173.534 620.309 190.397 638.706C207.247 657.089 231.359 667.206 257.864 667.206V637.206ZM197.913 571.802L227.782 574.605C228.468 567.297 228.894 554.464 220.284 542.428C212.942 532.164 202.024 527.13 195.736 524.344L183.582 551.771L171.428 579.199C172.656 579.743 173.539 580.166 174.171 580.49C174.807 580.818 175.045 580.972 175.019 580.955C174.999 580.942 173.278 579.843 171.483 577.334C169.49 574.548 168.571 571.671 168.246 569.604C167.996 568.015 168.19 567.445 168.044 568.998L197.913 571.802ZM183.582 551.771L195.737 524.344C184.042 519.161 179.828 512.945 178.281 508.848C176.626 504.463 176.717 499.073 179.364 493.422C184.44 482.588 199.491 470.959 224.366 477.485L231.979 448.467L239.592 419.449C187.663 405.826 142.807 430.024 125.031 467.967C116.253 486.705 114.183 508.941 122.149 530.04C130.223 551.428 147.415 568.557 171.427 579.199L183.582 551.771ZM231.979 448.467L224.352 477.482C229.755 478.902 238.867 481.284 248.375 480.074C260.798 478.494 268.748 471.846 273.367 467.336L252.407 445.872L231.447 424.409C230.868 424.975 231.639 424.109 233.386 423.082C235.535 421.818 238.128 420.894 240.803 420.554C243.072 420.265 244.405 420.532 243.951 420.462C243.463 420.387 242.242 420.146 239.606 419.453L231.979 448.467ZM252.407 445.872L273.383 467.321C278.666 462.153 284.033 454.934 286.454 445.529C289.054 435.423 287.622 425.078 282.682 416.178C273.956 400.46 257.293 393.786 245.272 390.769L237.971 419.867L230.669 448.965C233.47 449.668 234.567 450.294 234.533 450.274C234.476 450.24 233.943 449.919 233.172 449.185C232.393 448.445 231.268 447.183 230.223 445.301C227.826 440.983 227.06 435.574 228.347 430.575C228.908 428.395 229.727 426.817 230.34 425.853C230.943 424.902 231.406 424.449 231.431 424.424L252.407 445.872ZM237.971 419.867L245.271 390.769C206.411 381.02 165.079 388.555 131.154 410.766L147.586 435.865L164.018 460.964C184.54 447.529 208.748 443.465 230.67 448.965L237.971 419.867ZM147.586 435.865L131.155 410.765C137.283 406.753 144.727 405.491 151.597 406.976C157.471 408.245 161.12 411.099 162.533 412.337C165.197 414.671 165.587 416.244 164.744 414.519C163.409 411.79 161.834 406.52 161.519 401.297L131.574 403.103L101.628 404.91C102.402 417.742 105.904 430.771 110.838 440.867C113.13 445.556 116.952 452.174 122.998 457.47C126.102 460.188 131.428 464.003 138.924 465.622C147.415 467.457 156.424 465.936 164.017 460.965L147.586 435.865ZM131.574 403.103L161.519 401.301C161.165 395.408 161.962 391.937 163.156 389.211C164.469 386.215 167.17 382.077 173.469 376.175L152.959 354.281L132.448 332.388C122.344 341.854 113.768 352.419 108.197 365.138C102.507 378.128 100.814 391.384 101.628 404.906L131.574 403.103ZM152.959 354.281L173.462 376.182C178.791 371.192 188.484 361.181 189.14 345.015C189.645 332.56 184.135 321.285 181.009 314.851L154.027 327.966L127.045 341.08C128.66 344.402 129.305 346.019 129.538 346.718C129.766 347.397 129.064 345.669 129.189 342.582C129.255 340.947 129.542 339.192 130.103 337.429C130.655 335.692 131.355 334.316 131.958 333.337C132.995 331.653 133.735 331.183 132.456 332.381L152.959 354.281ZM154.027 327.966L181.012 314.859C173.639 299.679 179.721 282.588 195.741 275.49L183.588 248.062L171.435 220.634C124.737 241.325 104.653 294.978 127.042 341.073L154.027 327.966ZM183.588 248.062L195.741 275.49C202.026 272.705 212.939 267.674 220.281 257.413C228.887 245.385 228.471 232.559 227.789 225.244L197.918 228.032L168.048 230.819C168.193 232.372 168 231.804 168.25 230.218C168.575 228.154 169.494 225.282 171.485 222.499C173.278 219.993 174.998 218.895 175.02 218.881C175.046 218.864 174.809 219.018 174.173 219.344C173.542 219.669 172.661 220.09 171.434 220.634L183.588 248.062ZM197.918 228.032L227.787 225.232C226.367 210.08 234.827 197.492 248.091 193.033L238.531 164.597L228.971 136.161C188.635 149.721 164.097 188.669 168.049 230.832L197.918 228.032ZM238.531 164.597L248.11 193.026C249.95 192.407 251.466 191.94 252.348 191.69C252.871 191.543 252.773 191.584 252.286 191.689C252.175 191.713 251.11 191.95 249.623 192.106C249.025 192.169 247.065 192.369 244.531 192.191C243.298 192.104 240.751 191.857 237.674 190.889C235.089 190.076 228.368 187.612 222.979 180.651L246.701 162.286L270.423 143.921C265.025 136.949 258.288 134.475 255.68 133.655C252.58 132.679 250.004 132.428 248.735 132.338C246.128 132.155 244.07 132.359 243.349 132.435C241.615 132.617 240.204 132.916 239.659 133.033C238.305 133.324 236.988 133.681 236.029 133.952C233.949 134.54 231.454 135.324 228.952 136.167L238.531 164.597ZM246.701 162.286L223.55 181.365C222.625 180.243 221.992 179.301 221.824 179.053C221.56 178.66 221.36 178.343 221.254 178.172C221.039 177.826 220.883 177.559 220.829 177.467C220.759 177.346 220.709 177.258 220.689 177.221C220.676 177.199 220.667 177.183 220.662 177.173C220.656 177.163 220.653 177.157 220.652 177.156C220.652 177.155 220.658 177.167 220.672 177.192C220.686 177.217 220.704 177.251 220.728 177.295C220.777 177.385 220.84 177.502 220.919 177.649C221.244 178.253 221.731 179.169 222.358 180.357C223.604 182.715 225.303 185.955 227.154 189.502L253.75 175.623L280.346 161.743C278.469 158.146 276.721 154.811 275.412 152.334C274.763 151.104 274.196 150.037 273.767 149.239C273.56 148.854 273.339 148.446 273.138 148.083C273.047 147.919 272.887 147.631 272.7 147.31C272.614 147.162 272.431 146.85 272.195 146.47C272.078 146.282 271.869 145.95 271.597 145.546C271.422 145.286 270.782 144.335 269.853 143.207L246.701 162.286ZM253.75 175.623L227.146 189.487C239.322 212.851 258.805 232.004 278.154 241.869C287.321 246.543 300.644 251.262 314.876 248.698C322.651 247.298 330.708 243.662 337.274 236.872C343.733 230.193 347.083 222.193 348.548 214.702L319.106 208.942L289.664 203.183C289.936 201.794 290.943 198.471 294.142 195.163C297.448 191.744 301.329 190.173 304.24 189.649C308.747 188.837 309.601 190.554 305.407 188.415C298.034 184.656 287.226 174.945 280.354 161.758L253.75 175.623ZM319.106 208.942L348.55 214.692C350.369 205.377 350.164 193.395 342.036 181.77C336.14 173.337 327.425 167.486 321.191 163.472L304.95 188.695L288.708 213.918C291.552 215.75 293.098 216.875 293.91 217.535C294.755 218.221 293.98 217.748 292.863 216.151C291.494 214.193 290.204 211.404 289.703 208.103C289.258 205.17 289.657 203.22 289.662 203.193L319.106 208.942ZM304.95 188.695L321.193 163.473C303.403 152.016 301.887 136.235 306.759 125.093C311.51 114.227 323.197 105.485 342.655 111.36L351.327 82.6411L359.998 53.9218C310.261 38.9036 268.202 63.5096 251.785 101.055C235.488 138.324 245.382 186.017 288.707 213.917L304.95 188.695ZM321.474 50.6962L316.903 21.0464C264.97 29.0528 223.089 66.5706 214.063 118.036L243.612 123.218L273.161 128.401C277.324 104.666 297.038 84.8177 326.045 80.3459L321.474 50.6962ZM243.612 123.218L214.064 118.028L212.409 127.452L241.957 132.642L271.505 137.832L273.16 128.408L243.612 123.218ZM241.957 132.642L232.991 104.013L221.685 107.554L230.651 136.182L239.617 164.811L250.923 161.27L241.957 132.642ZM230.651 136.182L221.68 107.555C174.991 122.186 141.692 161.702 137.49 210.27L167.379 212.855L197.267 215.441C199.263 192.365 214.921 172.55 239.622 164.81L230.651 136.182ZM167.379 212.855L137.489 210.281L136.627 220.288L166.517 222.863L196.406 225.437L197.268 215.43L167.379 212.855ZM166.517 222.863L151.591 196.839L144.489 200.912L159.415 226.936L174.34 252.96L181.442 248.886L166.517 222.863ZM159.415 226.936L144.476 200.92C98.5855 227.271 75.0262 288.715 92.6848 338.676L120.97 328.679L149.255 318.682C141.467 296.648 153 265.214 174.354 252.952L159.415 226.936ZM120.97 328.679L92.6871 338.683L96.2724 348.819L124.555 338.816L152.838 328.812L149.253 318.675L120.97 328.679ZM124.555 338.816L100.592 320.767L94.3199 329.095L118.284 347.143L142.247 365.191L148.519 356.864L124.555 338.816ZM118.284 347.143L94.3226 329.091C61.8925 372.137 61.8925 427.701 94.3226 470.747L118.284 452.696L142.245 434.644C125.918 412.973 125.918 386.865 142.245 365.195L118.284 347.143ZM118.284 452.696L94.3253 470.751L100.597 479.073L124.555 461.018L148.514 442.962L142.242 434.64L118.284 452.696ZM124.555 461.018L96.2678 451.027L92.6878 461.164L120.975 471.154L149.263 481.145L152.843 471.008L124.555 461.018ZM120.975 471.154L92.6903 461.156C74.8079 511.747 97.9876 570.765 143.847 598.397L159.33 572.701L174.813 547.005C151.853 533.171 141.442 503.27 149.26 481.152L120.975 471.154ZM159.33 572.701L143.857 598.403L151.043 602.729L166.517 577.027L181.99 551.326L174.803 546.999L159.33 572.701ZM166.517 577.027L136.628 579.609L137.49 589.59L167.379 587.009L197.267 584.428L196.405 574.446L166.517 577.027ZM167.379 587.009L137.49 589.594C139.518 613.039 148.626 635.289 163.558 653.53L186.772 634.527L209.986 615.524C202.636 606.546 198.244 595.716 197.267 584.424L167.379 587.009ZM186.772 634.527L163.558 653.53C178.483 671.763 198.537 685.155 221.111 692.113L229.948 663.444L238.784 634.775C227.346 631.249 217.343 624.511 209.986 615.524L186.772 634.527ZM229.948 663.444L221.064 692.099L233.068 695.82L241.952 667.166L250.836 638.511L238.831 634.79L229.948 663.444ZM241.952 667.166L212.402 672.345L214.057 681.789L243.607 676.61L273.156 671.431L271.501 661.987L241.952 667.166ZM243.607 676.61L214.058 681.796C229.99 772.569 342.855 810.452 411.609 750.035L391.806 727.499L372.003 704.964C337.523 735.264 280.788 714.912 273.155 671.424L243.607 676.61ZM391.806 727.499L411.608 750.035L418.932 743.6L399.13 721.064L379.328 698.528L372.004 704.963L391.806 727.499ZM399.13 721.064L379.324 743.596L386.516 749.918L406.322 727.386L426.129 704.853L418.937 698.532L399.13 721.064ZM406.322 727.386L386.518 749.92C455.322 810.388 568.248 772.704 584.202 681.796L554.654 676.61L525.106 671.424C517.475 714.901 460.769 735.297 426.126 704.851L406.322 727.386ZM554.654 676.61L584.206 681.775L585.856 672.337L556.304 667.171L526.752 662.005L525.102 671.444L554.654 676.61ZM556.304 667.171L565.188 695.825L577.192 692.104L568.308 663.449L559.424 634.795L547.42 638.517L556.304 667.171ZM568.308 663.449L577.194 692.103C623.585 677.716 656.619 637.541 660.797 589.221L630.909 586.637L601.02 584.052C598.99 607.531 583.035 627.472 559.422 634.796L568.308 663.449ZM630.909 586.637L660.797 589.22L661.633 579.554L631.744 576.971L601.856 574.387L601.02 584.053L630.909 586.637ZM631.744 576.971L646.678 602.989L653.775 598.916L638.841 572.897L623.907 546.879L616.81 550.952L631.744 576.971ZM638.841 572.897L653.78 598.913C701.568 571.471 723.881 508.484 704.081 457.061L676.085 467.841L648.089 478.621C657.267 502.459 646.002 534.191 623.901 546.882L638.841 572.897ZM676.085 467.841L704.092 457.088L701.553 450.477L673.547 461.23L645.54 471.982L648.078 478.594L676.085 467.841ZM673.547 461.23L697.516 479.271L703.861 470.84L679.892 452.799L655.923 434.758L649.578 443.188L673.547 461.23ZM679.892 452.799L703.852 470.853C736.35 427.723 736.429 372.215 703.937 329.09L679.977 347.143L656.017 365.196C672.355 386.881 672.371 412.93 655.933 434.745L679.892 452.799ZM679.977 347.143L703.935 329.088L697.664 320.765L673.705 338.821L649.747 356.876L656.018 365.198L679.977 347.143ZM673.705 338.821L701.994 348.807L705.575 338.665L677.285 328.679L648.996 318.693L645.416 328.834L673.705 338.821ZM677.285 328.679L705.571 338.676C723.229 288.715 699.67 227.271 653.78 200.92L638.841 226.936L623.902 252.952C645.255 265.214 656.788 296.648 649 318.682L677.285 328.679ZM638.841 226.936L653.775 200.917L646.678 196.844L631.744 222.863L616.81 248.881L623.907 252.955L638.841 226.936ZM631.744 222.863L661.632 220.273L660.765 210.265L630.877 212.855L600.989 215.446L601.856 225.453L631.744 222.863ZM630.877 212.855L660.763 210.248C658.719 186.815 649.61 164.578 634.689 146.341L611.47 165.338L588.252 184.336C595.606 193.324 600.005 204.161 600.99 215.462L630.877 212.855ZM611.47 165.338L634.689 146.341C619.775 128.113 599.74 114.712 577.183 107.731L568.313 136.389L559.443 165.048C570.886 168.59 580.891 175.34 588.252 184.336L611.47 165.338ZM568.313 136.389L577.197 107.735L565.193 104.013L556.309 132.667L547.425 161.322L559.429 165.044L568.313 136.389ZM556.309 132.667L585.855 127.47L584.195 118.031L554.649 123.229L525.102 128.427L526.763 137.865L556.309 132.667ZM554.649 123.229L584.198 118.046C568.255 27.1443 455.303 -10.5298 386.52 49.912L406.322 72.4477L426.125 94.9834C460.755 64.5527 517.479 84.9584 525.1 128.411L554.649 123.229ZM406.322 72.4477L386.507 49.9234L379.315 56.2503L399.13 78.7746L418.946 101.299L426.138 94.972L406.322 72.4477ZM399.13 78.7746L418.941 56.2463L411.617 49.8057L391.806 72.334L371.995 94.8622L379.319 101.303L399.13 78.7746ZM391.806 72.334L411.609 49.7983C398.869 38.6036 382.805 30.5329 367.046 25.6848C351.38 20.8652 333.564 18.4792 316.905 21.0461L321.474 50.6962L326.043 80.3462C331.458 79.5119 339.883 80.1033 349.403 83.0322C358.831 85.9325 366.896 90.3814 372.004 94.8696L391.806 72.334ZM350.58 82.6411L341.92 111.364C347.452 113.032 353.207 116.882 358.351 124.333L383.039 107.287L407.726 90.242C395.832 73.0158 379.355 59.9831 359.24 53.9183L350.58 82.6411ZM383.039 107.287L358.358 124.342C362.077 129.725 366.768 135.56 372.698 140.263C378.852 145.143 387.804 149.914 399.13 149.914C410.456 149.914 419.408 145.143 425.562 140.263C431.493 135.56 436.183 129.725 439.903 124.342L415.222 107.287L390.541 90.2324C388.444 93.2679 387.658 93.7457 388.28 93.2518C389.127 92.5804 392.942 89.9141 399.13 89.9141C405.319 89.9141 409.134 92.5804 409.98 93.2518C410.603 93.7457 409.817 93.2679 407.719 90.2324L383.039 107.287ZM415.222 107.287L439.907 124.336C448.438 111.985 462.466 108.165 475.515 111.764C488.411 115.32 496.491 124.801 496.421 137.793L526.421 137.955L556.42 138.118C556.662 93.5001 525.88 63.4144 491.467 53.9232C457.207 44.4739 415.48 54.1245 390.537 90.2382L415.222 107.287ZM526.421 137.955L496.421 137.796C496.431 135.892 496.78 135.369 496.341 136.821C495.978 138.02 495.292 139.862 494.167 142.308C491.911 147.212 488.583 153.055 484.779 158.702C480.923 164.427 477.199 169.029 474.445 171.818C473.026 173.256 472.521 173.539 472.947 173.257C473.192 173.095 474.143 172.48 475.733 171.849C477.248 171.247 480.309 170.243 484.47 170.243V200.243V230.243C494.841 230.243 502.656 225.549 506.098 223.267C510.363 220.44 514.103 217.051 517.141 213.974C523.301 207.735 529.34 199.946 534.544 192.22C539.8 184.416 544.828 175.748 548.677 167.381C552.002 160.152 556.362 149.174 556.42 138.114L526.421 137.955ZM484.47 200.243V170.243C468.502 170.243 457.764 180.152 452.798 189.787C448.477 198.171 447.874 206.805 448.265 213.011C448.681 219.62 450.41 226.668 453.725 233.202C456.969 239.596 462.794 247.489 472.544 252.415L486.072 225.639L499.6 198.862C504.562 201.369 506.635 204.878 507.233 206.056C507.902 207.376 508.092 208.377 508.146 209.242C508.175 209.703 508.388 212.896 506.132 217.274C504.883 219.697 502.544 223.069 498.464 225.869C494.144 228.834 489.183 230.243 484.47 230.243V200.243ZM486.072 225.639L472.534 252.41C488.119 260.291 503.563 255.497 511.551 252.029C520.766 248.028 529.407 241.817 536.819 235.263C551.694 222.112 566.479 203.242 575.629 182.974L548.287 170.629L520.945 158.284C515.616 170.086 506.224 182.225 497.076 190.313C492.477 194.38 489.146 196.345 487.657 196.992C484.944 198.17 490.956 194.49 499.611 198.867L486.072 225.639ZM548.287 170.629L575.636 182.958C576.574 180.879 577.434 179.015 578.051 177.712C578.37 177.036 578.56 176.648 578.634 176.501C578.686 176.396 578.594 176.585 578.411 176.919C578.334 177.06 578.082 177.52 577.714 178.117C577.533 178.409 577.178 178.974 576.688 179.665C576.437 180.019 576.061 180.534 575.576 181.135C575.327 181.443 575.016 181.817 574.645 182.233C574.28 182.644 573.798 183.163 573.208 183.74L552.237 162.286L531.267 140.833C529.295 142.76 528.045 144.535 527.742 144.963C527.234 145.679 526.857 146.277 526.653 146.608C526.237 147.282 525.925 147.846 525.777 148.116C525.453 148.708 525.175 149.256 525.003 149.598C524.628 150.346 524.214 151.207 523.818 152.044C523.003 153.766 521.983 155.98 520.938 158.3L548.287 170.629ZM552.237 162.286L573.598 183.351C568.743 188.274 563.46 190.249 560.596 191.065C557.575 191.926 555.073 192.113 553.695 192.164C550.977 192.264 548.955 191.938 548.368 191.841C546.957 191.608 546.201 191.344 546.605 191.468C547.125 191.627 548.461 192.095 550.423 192.896C552.284 193.656 554.217 194.516 555.838 195.304C557.737 196.227 558.235 196.582 557.803 196.291L574.548 171.399L591.292 146.507C585.911 142.887 578.143 139.407 573.11 137.351C570.283 136.196 567.102 134.995 564.179 134.099C562.86 133.695 560.651 133.058 558.155 132.645C557.025 132.458 554.553 132.092 551.489 132.204C549.938 132.261 547.29 132.468 544.15 133.363C541.167 134.213 535.793 136.236 530.876 141.222L552.237 162.286ZM574.548 171.399L557.802 196.291C567.179 202.599 572.151 212.422 571.122 225.188L601.025 227.598L630.928 230.007C633.633 196.438 619.335 165.373 591.293 146.508L574.548 171.399ZM601.025 227.598L571.122 225.198C570.553 232.282 570.104 245.139 578.563 257.168C585.937 267.653 597.013 272.72 603.251 275.488L615.42 248.067L627.588 220.646C626.342 220.093 625.452 219.667 624.817 219.34C624.178 219.012 623.951 218.863 623.994 218.89C624.063 218.935 625.833 220.081 627.642 222.653C629.626 225.475 630.463 228.295 630.746 230.123C630.957 231.478 630.783 231.818 630.929 229.998L601.025 227.598ZM615.42 248.067L603.267 275.495C619.288 282.594 625.367 299.68 617.995 314.859L644.98 327.966L671.966 341.073C694.355 294.977 674.268 241.329 627.573 220.639L615.42 248.067ZM644.98 327.966L617.997 314.855C614.872 321.287 609.362 332.564 609.867 345.017C610.524 361.186 620.22 371.196 625.545 376.182L646.048 354.281L666.551 332.381C665.27 331.182 666.011 331.651 667.047 333.335C667.65 334.314 668.351 335.69 668.904 337.428C669.465 339.192 669.752 340.948 669.818 342.584C669.943 345.672 669.241 347.4 669.469 346.719C669.703 346.019 670.349 344.401 671.964 341.076L644.98 327.966ZM646.048 354.281L625.539 376.176C639.97 389.693 640.563 403.416 634.029 414.461L659.85 429.734L685.672 445.008C708.508 406.399 698.525 362.331 666.557 332.387L646.048 354.281ZM659.85 429.734L634.029 414.461L630.55 420.343L656.371 435.617L682.192 450.89L685.671 445.008L659.85 429.734ZM656.371 435.617L676.165 413.074L671.019 408.556L651.226 431.099L631.432 453.643L636.577 458.16L656.371 435.617ZM651.226 431.099L671.013 408.55C639.071 380.52 597.059 373.636 555.187 385.497L563.363 414.362L571.54 443.226C596.891 436.045 617.035 441.008 631.438 453.648L651.226 431.099ZM563.363 414.362L555.185 385.498C542.717 389.031 526.918 394.504 516.585 405.967C510.345 412.89 506.096 421.946 505.792 432.485C505.513 442.157 508.643 450.328 511.756 456.216L538.277 442.192L564.797 428.168C564.47 427.551 565.892 429.875 565.767 434.216C565.701 436.502 565.21 438.905 564.24 441.202C563.29 443.453 562.1 445.087 561.151 446.14C559.486 447.987 558.604 448.009 560.781 446.978C562.775 446.033 566.16 444.75 571.542 443.225L563.363 414.362ZM538.277 442.192L511.765 456.233C514.126 460.69 518.036 466.57 524.644 471.282C531.62 476.256 539.208 478.239 546.112 478.59C557.449 479.166 569.278 475.259 578.475 471.988L568.424 443.722L558.373 415.456C553.885 417.052 550.956 417.94 549.039 418.402C546.969 418.901 547.368 418.576 549.158 418.667C551.512 418.787 555.502 419.594 559.477 422.428C563.084 425 564.59 427.777 564.788 428.151L538.277 442.192ZM568.424 443.722L578.476 471.988C598.794 464.762 613.027 474.271 618.979 487.955C622.065 495.051 622.307 502.245 620.316 508.007C618.522 513.198 614.159 519.516 603.264 524.344L615.42 551.771L627.576 579.198C652.468 568.166 669.367 549.76 677.024 527.609C684.483 506.029 682.367 483.263 674 464.025C657.045 425.041 611.993 396.387 558.372 415.456L568.424 443.722ZM615.42 551.771L603.265 524.344C597.025 527.109 585.938 532.174 578.559 542.667C570.094 554.704 570.551 567.571 571.123 574.654L601.025 572.241L630.928 569.828C630.781 568.006 630.955 568.346 630.745 569.702C630.462 571.531 629.626 574.355 627.638 577.182C625.826 579.758 624.052 580.905 623.981 580.951C623.938 580.979 624.164 580.831 624.803 580.503C625.438 580.177 626.328 579.751 627.575 579.199L615.42 551.771ZM601.025 572.241L571.122 574.647C572.287 589.126 563.804 600.9 551.21 606.216C538.816 611.448 527.85 608.603 521.232 599.128L496.638 616.307L472.044 633.486C498.159 670.875 541.748 675.338 574.545 661.492C607.142 647.731 634.486 614.04 630.929 569.835L601.025 572.241ZM496.638 616.307L521.234 599.131C515.654 591.141 507.705 581.55 496.315 576.091C482.282 569.365 468.087 571.101 456.517 577.146L470.409 603.736L484.301 630.326C483.603 630.69 481.561 631.602 478.478 631.755C475.219 631.918 472.378 631.154 470.382 630.197C468.643 629.364 468.085 628.649 468.647 629.207C469.195 629.753 470.325 631.025 472.042 633.484L496.638 616.307ZM470.409 603.736L456.501 577.155C448.655 581.26 441.827 587.777 437.764 596.694C433.85 605.286 433.51 613.87 434.489 620.848C436.335 634.002 443.331 645.524 450.083 653.969C463.9 671.25 486.839 688.162 512.507 694.412L519.604 665.264L526.702 636.115C515.813 633.464 503.776 625.042 496.945 616.5C493.374 612.033 493.628 610.521 493.908 612.511C494.103 613.908 494.275 617.377 492.364 621.572C490.305 626.091 486.974 628.927 484.317 630.317L470.409 603.736ZM519.604 665.264L512.493 694.409L518.934 695.98L526.045 666.835L533.156 637.69L526.715 636.118L519.604 665.264ZM526.045 666.835L496.562 661.291L495.361 667.675L524.845 673.219L554.328 678.763L555.528 672.379L526.045 666.835ZM524.845 673.219L495.361 667.676C493.203 679.158 484.623 686.89 472.624 689.006C460.511 691.142 447.747 686.854 439.907 675.502L415.222 692.551L390.537 709.6C413.104 742.274 450.349 753.86 483.045 748.094C515.856 742.308 546.884 718.36 554.328 678.762L524.845 673.219ZM415.222 692.551L439.907 675.502C435.262 668.777 427.037 656.518 411.719 652.256L403.678 681.159L395.637 710.061C393.892 709.575 392.123 708.821 390.492 707.819C388.964 706.88 388.023 706.01 387.677 705.668C387.371 705.366 387.46 705.408 388.03 706.134C388.586 706.845 389.387 707.934 390.537 709.6L415.222 692.551ZM403.678 681.159L411.719 652.256C403.078 649.852 391.044 648.661 378.638 655.505C368.849 660.906 362.421 669.613 358.352 675.505L383.039 692.551L407.725 709.597C409.268 707.363 410.089 706.394 410.367 706.094C410.63 705.81 409.719 706.883 407.622 708.04C405.203 709.375 402.328 710.207 399.442 710.345C396.926 710.464 395.423 710.001 395.637 710.061L403.678 681.159ZM383.039 692.551L358.354 675.502C341.516 699.881 307.329 691.205 302.21 665.35L272.781 671.177L243.353 677.004C259.291 757.498 362.267 775.412 407.723 709.601L383.039 692.551ZM272.781 671.177L302.209 665.344L301.352 661.022L271.925 666.856L242.497 672.689L243.354 677.011L272.781 671.177ZM271.925 666.856L278.743 696.071L286.03 694.37L279.212 665.155L272.394 635.94L265.107 637.641L271.925 666.856ZM279.212 665.155L286.017 694.373C301.531 690.76 316.636 682.925 328.851 673.882C340.698 665.111 352.988 652.855 359.614 638.249L332.294 625.855L304.974 613.46C304.176 615.22 300.633 620.119 293.149 625.66C286.033 630.929 278.309 634.562 272.407 635.937L279.212 665.155ZM332.294 625.855L359.614 638.249C369.428 616.617 361.957 593.228 343.653 581.664C325.54 570.221 301.484 573.273 285.915 590.745L308.312 610.704L330.71 630.663C329.428 632.101 326.688 634.115 322.575 634.721C318.683 635.294 314.794 634.403 311.607 632.39C308.415 630.373 305.8 627.14 304.611 623.097C303.358 618.83 304.145 615.288 304.974 613.46L332.294 625.855ZM308.312 610.704L285.915 590.745C275.489 602.445 271.95 605.011 270.21 605.912C269.648 606.203 268.072 607.206 257.118 607.206V637.206V667.206C270.029 667.206 283.833 666.423 297.795 659.195C310.577 652.578 320.703 641.893 330.71 630.663L308.312 610.704ZM257.118 637.206V607.206C246.093 607.206 238.493 603.195 233.881 598.164C229.282 593.146 226.031 585.347 227.036 574.595L197.167 571.802L167.297 569.008C164.828 595.406 172.788 620.309 189.65 638.706C206.501 657.089 230.613 667.206 257.118 667.206V637.206ZM197.167 571.802L227.035 574.605C227.721 567.297 228.147 554.464 219.538 542.428C212.196 532.163 201.277 527.13 194.99 524.344L182.836 551.771L170.682 579.199C171.909 579.743 172.792 580.166 173.424 580.49C174.061 580.818 174.298 580.972 174.272 580.955C174.252 580.942 172.531 579.843 170.737 577.334C168.744 574.548 167.825 571.671 167.5 569.603C167.25 568.015 167.444 567.445 167.298 568.998L197.167 571.802ZM182.836 551.771L194.991 524.344C183.295 519.161 179.082 512.945 177.535 508.848C175.879 504.463 175.971 499.073 178.618 493.422C183.693 482.588 198.744 470.959 223.62 477.485L231.233 448.467L238.845 419.449C186.917 405.826 142.061 430.024 124.285 467.967C115.507 486.705 113.436 508.941 121.402 530.04C129.477 551.428 146.668 568.557 170.68 579.199L182.836 551.771ZM231.233 448.467L223.605 477.481C229.008 478.902 238.12 481.284 247.628 480.074C260.051 478.494 268.002 471.846 272.62 467.336L251.661 445.872L230.701 424.409C230.121 424.975 230.893 424.109 232.64 423.082C234.789 421.818 237.381 420.894 240.056 420.554C242.325 420.265 243.659 420.532 243.205 420.462C242.716 420.387 241.495 420.146 238.86 419.453L231.233 448.467ZM251.661 445.872L272.636 467.321C277.92 462.153 283.287 454.934 285.707 445.529C288.308 435.423 286.876 425.078 281.935 416.178C273.209 400.46 256.547 393.785 244.526 390.769L237.224 419.867L229.922 448.965C232.724 449.668 233.82 450.294 233.786 450.273C233.729 450.239 233.196 449.919 232.425 449.185C231.647 448.445 230.522 447.183 229.477 445.301C227.08 440.983 226.314 435.574 227.601 430.575C228.161 428.395 228.981 426.817 229.593 425.853C230.196 424.902 230.659 424.449 230.685 424.424L251.661 445.872ZM237.224 419.867L244.524 390.768C205.665 381.02 164.332 388.555 130.407 410.766L146.84 435.865L163.272 460.964C183.793 447.529 208.001 443.465 229.924 448.965L237.224 419.867ZM146.84 435.865L130.409 410.765C136.537 406.753 143.98 405.491 150.851 406.976C156.725 408.245 160.373 411.099 161.786 412.337C164.451 414.671 164.84 416.244 163.997 414.519C162.663 411.79 161.088 406.52 160.773 401.297L130.827 403.103L100.882 404.91C101.656 417.742 105.157 430.771 110.092 440.867C112.384 445.556 116.206 452.174 122.251 457.47C125.355 460.188 130.682 464.002 138.177 465.622C146.669 467.457 155.678 465.936 163.27 460.965L146.84 435.865ZM130.827 403.103L160.773 401.301C160.418 395.408 161.215 391.937 162.409 389.211C163.722 386.215 166.423 382.077 172.723 376.175L152.212 354.281L131.702 332.388C121.598 341.854 113.022 352.419 107.451 365.138C101.761 378.127 100.067 391.384 100.881 404.906L130.827 403.103ZM152.212 354.281L172.715 376.182C178.045 371.192 187.737 361.181 188.393 345.015C188.899 332.56 183.389 321.284 180.262 314.851L153.28 327.966L126.299 341.08C127.913 344.402 128.558 346.019 128.792 346.718C129.019 347.397 128.317 345.669 128.443 342.582C128.509 340.947 128.796 339.192 129.356 337.429C129.908 335.692 130.609 334.316 131.212 333.337C132.248 331.653 132.989 331.183 131.709 332.381L152.212 354.281ZM153.28 327.966L180.266 314.859C172.893 299.679 178.974 282.588 194.994 275.49L182.841 248.062L170.688 220.634C123.991 241.325 103.907 294.978 126.295 341.073L153.28 327.966ZM182.841 248.062L194.994 275.49C201.279 272.705 212.193 267.674 219.534 257.413C228.141 245.385 227.725 232.559 227.042 225.244L197.172 228.032L167.302 230.819C167.447 232.372 167.253 231.804 167.503 230.218C167.829 228.154 168.748 225.282 170.739 222.499C172.532 219.993 174.251 218.895 174.273 218.881C174.3 218.864 174.063 219.018 173.427 219.344C172.796 219.669 171.914 220.09 170.688 220.634L182.841 248.062ZM197.172 228.032L227.041 225.232C225.62 210.08 234.081 197.492 247.344 193.033L237.785 164.597L228.225 136.161C187.888 149.721 163.35 188.669 167.303 230.832L197.172 228.032ZM237.785 164.597L247.364 193.026C249.203 192.407 250.719 191.94 251.602 191.69C252.124 191.543 252.026 191.584 251.54 191.689C251.429 191.713 250.363 191.95 248.876 192.106C248.278 192.169 246.318 192.369 243.784 192.191C242.552 192.104 240.005 191.857 236.928 190.889C234.343 190.076 227.621 187.612 222.233 180.651L245.955 162.286L269.677 143.921C264.279 136.949 257.541 134.475 254.933 133.655C251.834 132.679 249.257 132.428 247.988 132.338C245.382 132.155 243.323 132.359 242.602 132.435C240.869 132.617 239.457 132.916 238.913 133.033C237.559 133.324 236.241 133.681 235.282 133.952C233.202 134.54 230.708 135.324 228.205 136.167L237.785 164.597ZM245.955 162.286L222.803 181.365C221.878 180.243 221.245 179.301 221.078 179.053C220.814 178.66 220.614 178.343 220.507 178.172C220.292 177.826 220.137 177.559 220.083 177.467C220.013 177.346 219.963 177.258 219.942 177.221C219.93 177.199 219.921 177.183 219.915 177.173C219.91 177.163 219.906 177.157 219.906 177.157C219.905 177.156 219.912 177.167 219.925 177.192C219.939 177.217 219.958 177.251 219.982 177.295C220.03 177.385 220.094 177.502 220.173 177.649C220.497 178.253 220.984 179.169 221.612 180.357C222.857 182.715 224.557 185.955 226.408 189.502L253.004 175.622L279.6 161.743C277.723 158.146 275.974 154.811 274.666 152.334C274.016 151.104 273.449 150.037 273.021 149.239C272.814 148.854 272.592 148.445 272.391 148.083C272.3 147.919 272.14 147.631 271.953 147.31C271.867 147.162 271.685 146.85 271.448 146.47C271.331 146.282 271.122 145.95 270.85 145.546C270.675 145.286 270.036 144.335 269.106 143.207L245.955 162.286ZM253.004 175.622L226.4 189.487C238.575 212.851 258.058 232.004 277.407 241.869C286.574 246.543 299.897 251.262 314.13 248.698C321.904 247.298 329.962 243.662 336.528 236.872C342.986 230.193 346.336 222.193 347.801 214.702L318.36 208.942L288.918 203.182C289.189 201.794 290.197 198.471 293.396 195.163C296.702 191.744 300.582 190.173 303.494 189.649C308.001 188.837 308.854 190.554 304.661 188.415C297.287 184.656 286.48 174.945 279.608 161.758L253.004 175.622ZM318.36 208.942L347.803 214.692C349.623 205.377 349.418 193.395 341.29 181.77C335.394 173.337 326.679 167.486 320.445 163.472L304.203 188.695L287.962 213.918C290.806 215.75 292.352 216.875 293.164 217.535C294.008 218.221 293.233 217.748 292.117 216.151C290.748 214.193 289.458 211.404 288.956 208.103C288.511 205.17 288.91 203.22 288.916 203.193L318.36 208.942ZM304.203 188.695L320.446 163.473C302.656 152.016 301.141 136.235 306.013 125.093C310.764 114.227 322.451 105.485 341.908 111.36L350.58 82.6411L359.252 53.9218C309.514 38.9036 267.456 63.5096 251.038 101.055C234.742 138.324 244.635 186.017 287.96 213.917L304.203 188.695Z" fill="white" mask="url(#path-2-outside-1_19_106)"/>
</svg>
