<svg xmlns="http://www.w3.org/2000/svg" width="658" height="148" fill="none"><path fill="#004080" d="M8.8 100V30h17v55H57v15H8.8Zm82.584 1c-5.866 0-10.966-1.167-15.3-3.5-4.333-2.4-7.7-5.633-10.1-9.7-2.4-4.133-3.6-8.833-3.6-14.1 0-4.067.667-7.8 2-11.2 1.334-3.4 3.2-6.333 5.6-8.8a24.13 24.13 0 0 1 8.5-5.8c3.334-1.4 6.967-2.1 10.9-2.1 3.734 0 7.134.667 10.2 2 3.134 1.333 5.834 3.2 8.1 5.6 2.267 2.4 4 5.233 5.2 8.5 1.2 3.267 1.734 6.833 1.6 10.7l-.1 4.3h-42.3l-2.3-9h31.6l-1.7 1.9v-2c-.133-1.667-.666-3.133-1.6-4.4-.866-1.333-2.033-2.367-3.5-3.1-1.466-.733-3.133-1.1-5-1.1-2.6 0-4.833.533-6.7 1.6-1.8 1-3.166 2.5-4.1 4.5-.933 1.933-1.4 4.333-1.4 7.2 0 2.933.6 5.5 1.8 7.7 1.267 2.133 3.067 3.8 5.4 5 2.4 1.2 5.234 1.8 8.5 1.8 2.267 0 4.267-.333 6-1 1.8-.667 3.734-1.8 5.8-3.4l7.5 10.6c-2.066 1.8-4.266 3.267-6.6 4.4a31.82 31.82 0 0 1-7.2 2.5c-2.4.6-4.8.9-7.2.9Zm57.106 22c-4.333 0-8.667-.633-13-1.9-4.267-1.267-7.733-2.9-10.4-4.9l5.6-11.2c1.4.933 2.933 1.733 4.6 2.4a29.92 29.92 0 0 0 5.4 1.7c1.867.4 3.767.6 5.7.6 3.4 0 6.167-.5 8.3-1.5 2.133-1 3.733-2.533 4.8-4.6 1.067-2 1.6-4.533 1.6-7.6v-8.9l3.1.5c-.467 2.2-1.633 4.2-3.5 6-1.8 1.8-4.033 3.267-6.7 4.4-2.667 1.067-5.5 1.6-8.5 1.6-4.8 0-9.1-1.1-12.9-3.3-3.733-2.267-6.7-5.367-8.9-9.3-2.133-4-3.2-8.6-3.2-13.8 0-5.333 1.067-10.033 3.2-14.1 2.133-4.133 5.067-7.367 8.8-9.7 3.733-2.4 7.933-3.6 12.6-3.6 2 0 3.9.233 5.7.7 1.867.467 3.567 1.1 5.1 1.9 1.6.733 3 1.633 4.2 2.7 1.267 1 2.267 2.1 3 3.3.8 1.2 1.333 2.433 1.6 3.7l-3.3.8.6-12h15.2v48.8c0 4.333-.667 8.167-2 11.5-1.267 3.4-3.167 6.267-5.7 8.6-2.467 2.4-5.467 4.2-9 5.4-3.533 1.2-7.533 1.8-12 1.8Zm.4-35.8c2.6 0 4.833-.567 6.7-1.7 1.933-1.2 3.4-2.833 4.4-4.9 1.067-2.067 1.6-4.5 1.6-7.3s-.533-5.233-1.6-7.3c-1-2.133-2.467-3.767-4.4-4.9-1.867-1.2-4.1-1.8-6.7-1.8-2.533 0-4.733.6-6.6 1.8-1.867 1.133-3.333 2.767-4.4 4.9-1 2.067-1.5 4.5-1.5 7.3s.5 5.233 1.5 7.3c1.067 2.067 2.533 3.7 4.4 4.9 1.867 1.133 4.067 1.7 6.6 1.7Zm61.794 13.7c-4.466 0-8.466-1.167-12-3.5-3.466-2.4-6.233-5.667-8.3-9.8-2.066-4.2-3.1-8.933-3.1-14.2 0-5.4 1.034-10.167 3.1-14.3 2.067-4.133 4.9-7.367 8.5-9.7 3.6-2.4 7.7-3.6 12.3-3.6 2.534 0 4.834.367 6.9 1.1 2.134.733 4 1.767 5.6 3.1a18.856 18.856 0 0 1 4.1 4.5 18.078 18.078 0 0 1 2.5 5.4l-3.3-.4V46.9h15.9V100h-16.2V87.2l3.6-.1c-.533 1.867-1.4 3.633-2.6 5.3a19.664 19.664 0 0 1-4.4 4.4c-1.733 1.267-3.666 2.267-5.8 3-2.133.733-4.4 1.1-6.8 1.1Zm4.4-13.5c2.467 0 4.6-.567 6.4-1.7 1.8-1.133 3.2-2.733 4.2-4.8 1-2.133 1.5-4.633 1.5-7.5s-.5-5.333-1.5-7.4c-1-2.133-2.4-3.767-4.2-4.9-1.8-1.2-3.933-1.8-6.4-1.8-2.4 0-4.5.6-6.3 1.8-1.733 1.133-3.1 2.767-4.1 4.9-1 2.067-1.5 4.533-1.5 7.4s.5 5.367 1.5 7.5c1 2.067 2.367 3.667 4.1 4.8 1.8 1.133 3.9 1.7 6.3 1.7Zm42.018 12.6V26h16v74h-16ZM426.8 100V30H456c4.467 0 8.233.667 11.3 2s5.367 3.333 6.9 6c1.6 2.6 2.4 5.8 2.4 9.6s-1.067 7.033-3.2 9.7c-2.067 2.667-4.967 4.5-8.7 5.5v-2c3.133.667 5.867 1.867 8.2 3.6 2.333 1.667 4.133 3.767 5.4 6.3 1.333 2.533 2 5.433 2 8.7 0 3.333-.533 6.3-1.6 8.9a15.78 15.78 0 0 1-4.6 6.4c-2 1.733-4.433 3.067-7.3 4-2.867.867-6.133 1.3-9.8 1.3h-30.2Zm10.8-10.4h18.8c2.733 0 5.033-.4 6.9-1.2 1.933-.8 3.4-1.967 4.4-3.5 1.067-1.6 1.6-3.5 1.6-5.7 0-2.067-.567-3.833-1.7-5.3-1.067-1.467-2.6-2.567-4.6-3.3-2-.8-4.367-1.2-7.1-1.2h-18.3v20.2Zm0-30.6h17.8c2 0 3.767-.4 5.3-1.2 1.6-.8 2.833-1.9 3.7-3.3.933-1.4 1.4-3 1.4-4.8 0-3-1-5.3-3-6.9-2-1.6-4.867-2.4-8.6-2.4h-16.6V59Zm56.366 41V47.5h10.3V100h-10.3Zm5-64.1c-2.2 0-3.9-.567-5.1-1.7-1.2-1.133-1.8-2.733-1.8-4.8 0-1.933.6-3.5 1.8-4.7 1.267-1.2 2.967-1.8 5.1-1.8 2.2 0 3.9.567 5.1 1.7 1.2 1.133 1.8 2.733 1.8 4.8 0 1.933-.633 3.5-1.9 4.7-1.2 1.2-2.866 1.8-5 1.8Zm27.632 64.1V34.1h10.3V100h-10.3Zm-10.9-42.5v-10h33.4v10h-33.4Zm66.791 43.5c-5.4 0-10.2-1.133-14.4-3.4-4.133-2.333-7.4-5.5-9.8-9.5-2.333-4-3.5-8.6-3.5-13.8 0-4.133.667-7.9 2-11.3 1.333-3.4 3.167-6.333 5.5-8.8a24.128 24.128 0 0 1 8.5-5.8c3.333-1.4 6.933-2.1 10.8-2.1 3.4 0 6.567.667 9.5 2 2.933 1.267 5.467 3.033 7.6 5.3 2.2 2.267 3.867 4.967 5 8.1 1.2 3.067 1.767 6.433 1.7 10.1l-.1 4.4h-42.9l-2.3-8.2h36.3l-1.5 1.7v-2.4c-.2-2.2-.933-4.167-2.2-5.9a13.601 13.601 0 0 0-4.8-4.1c-1.933-1-4.033-1.5-6.3-1.5-3.6 0-6.633.7-9.1 2.1-2.467 1.333-4.333 3.333-5.6 6-1.267 2.6-1.9 5.833-1.9 9.7 0 3.667.767 6.867 2.3 9.6 1.533 2.667 3.7 4.733 6.5 6.2 2.8 1.467 6.033 2.2 9.7 2.2 2.6 0 5-.433 7.2-1.3 2.267-.867 4.7-2.433 7.3-4.7l5.2 7.3c-1.6 1.6-3.567 3-5.9 4.2a37.044 37.044 0 0 1-7.3 2.9c-2.533.667-5.033 1-7.5 1Zm51.594 0c-4.4 0-8.367-.767-11.9-2.3-3.534-1.533-6.467-3.8-8.8-6.8l7-6c2 2.333 4.166 4.033 6.5 5.1 2.4 1 5.1 1.5 8.1 1.5 1.2 0 2.3-.133 3.3-.4 1.066-.333 1.966-.8 2.7-1.4.8-.6 1.4-1.3 1.8-2.1.4-.867.6-1.8.6-2.8 0-1.733-.634-3.133-1.9-4.2-.667-.467-1.734-.967-3.2-1.5-1.4-.6-3.234-1.2-5.5-1.8-3.867-1-7.034-2.133-9.5-3.4-2.467-1.267-4.367-2.7-5.7-4.3a12.875 12.875 0 0 1-2.2-4.1c-.467-1.533-.7-3.2-.7-5 0-2.2.466-4.2 1.4-6a15.4 15.4 0 0 1 4-4.8c1.733-1.4 3.733-2.467 6-3.2 2.333-.733 4.8-1.1 7.4-1.1 2.466 0 4.9.333 7.3 1 2.466.667 4.733 1.633 6.8 2.9 2.066 1.267 3.8 2.767 5.2 4.5l-5.9 6.5a22.378 22.378 0 0 0-4.2-3.3c-1.467-1-2.967-1.767-4.5-2.3-1.534-.533-2.934-.8-4.2-.8-1.4 0-2.667.133-3.8.4-1.134.267-2.1.667-2.9 1.2-.734.533-1.3 1.2-1.7 2-.4.8-.6 1.7-.6 2.7.066.867.266 1.7.6 2.5.4.733.933 1.367 1.6 1.9.733.533 1.833 1.1 3.3 1.7 1.466.6 3.333 1.167 5.6 1.7 3.333.867 6.066 1.833 8.2 2.9 2.2 1 3.933 2.167 5.2 3.5 1.333 1.267 2.266 2.733 2.8 4.4.533 1.667.8 3.533.8 5.6 0 3-.867 5.7-2.6 8.1-1.667 2.333-3.934 4.167-6.8 5.5-2.867 1.333-6.067 2-9.6 2ZM373.546 27c20.15 0 36.485 16.335 36.485 36.485s-16.335 36.486-36.485 36.486a36.311 36.311 0 0 1-20.53-6.323 36.316 36.316 0 0 1-20.531 6.323C312.335 99.97 296 83.636 296 63.485 296 43.335 312.335 27 332.485 27a36.317 36.317 0 0 1 20.531 6.321A36.313 36.313 0 0 1 373.546 27Zm-41.061 4.209c-17.825 0-32.276 14.45-32.276 32.276 0 17.826 14.45 32.278 32.276 32.278a32.122 32.122 0 0 0 17.01-4.844c-7.622-6.687-12.434-16.498-12.434-27.434 0-10.935 4.812-20.746 12.433-27.433a32.123 32.123 0 0 0-17.009-4.843Zm41.061 0a32.123 32.123 0 0 0-17.01 4.843c7.622 6.687 12.435 16.497 12.435 27.433 0 10.937-4.814 20.747-12.436 27.434a32.123 32.123 0 0 0 17.011 4.844c17.826 0 32.277-14.452 32.277-32.278 0-17.825-14.451-32.276-32.277-32.276Zm-20.53 7.37c-7.174 5.92-11.746 14.879-11.746 24.906s4.571 18.986 11.745 24.907h.002c7.173-5.92 11.746-14.88 11.746-24.907s-4.573-18.987-11.747-24.907Zm1.888 42.115a2.106 2.106 0 0 1 0 4.188l-.215.01h-3.57a2.104 2.104 0 0 1 0-4.208h3.57l.215.01Zm4.241-9.818a2.104 2.104 0 0 1 0 4.188l-.216.01h-12.05a2.105 2.105 0 0 1 0-4.209h12.05l.216.011Zm1.785-9.373a2.105 2.105 0 0 1 0 4.187l-.215.011h-15.844a2.104 2.104 0 0 1 0-4.209h15.844l.215.01Zm-1.562-9.595a2.105 2.105 0 0 1 0 4.188l-.216.01h-12.049a2.105 2.105 0 1 1 0-4.209h12.049l.216.011Zm-4.464-9.596a2.105 2.105 0 0 1 0 4.188l-.215.01h-3.57a2.104 2.104 0 0 1 0-4.208h3.57l.215.01ZM532.218 139.37c-.666 0-1.184-.197-1.554-.592-.345-.395-.518-.962-.518-1.702 0-.666.185-1.209.555-1.628.395-.444.9-.666 1.517-.666.666 0 1.172.21 1.517.629.37.395.555.95.555 1.665 0 .691-.197 1.246-.592 1.665-.37.419-.863.629-1.48.629Zm15.042 0c-1.825 0-3.453-.432-4.884-1.295a9.709 9.709 0 0 1-3.404-3.589c-.814-1.529-1.221-3.256-1.221-5.18s.407-3.638 1.221-5.143c.839-1.529 1.973-2.726 3.404-3.589 1.431-.863 3.071-1.295 4.921-1.295 1.653 0 3.157.333 4.514.999 1.357.641 2.442 1.542 3.256 2.701l-1.628 1.998a7.65 7.65 0 0 0-1.702-1.628 7.393 7.393 0 0 0-2.109-1.073 6.418 6.418 0 0 0-2.22-.407c-1.307 0-2.479.333-3.515.999-1.036.641-1.862 1.517-2.479 2.627-.592 1.11-.888 2.38-.888 3.811s.296 2.713.888 3.848c.617 1.11 1.443 1.986 2.479 2.627 1.036.641 2.195.962 3.478.962.74 0 1.468-.111 2.183-.333a8.35 8.35 0 0 0 2.035-1.036 8.665 8.665 0 0 0 1.776-1.665l1.628 1.998c-.839 1.11-1.961 1.998-3.367 2.664a10.086 10.086 0 0 1-4.366.999Zm19.883 0c-1.924 0-3.639-.432-5.143-1.295-1.48-.863-2.652-2.06-3.515-3.589-.839-1.529-1.258-3.268-1.258-5.217 0-1.924.419-3.638 1.258-5.143a9.518 9.518 0 0 1 3.515-3.552c1.504-.863 3.219-1.295 5.143-1.295 1.899 0 3.589.432 5.069 1.295a9.18 9.18 0 0 1 3.515 3.552c.863 1.505 1.295 3.219 1.295 5.143 0 1.949-.432 3.688-1.295 5.217a9.115 9.115 0 0 1-3.515 3.589c-1.48.863-3.17 1.295-5.069 1.295Zm0-2.627c1.356 0 2.565-.321 3.626-.962a6.964 6.964 0 0 0 2.479-2.664c.592-1.135.888-2.417.888-3.848s-.296-2.701-.888-3.811a6.437 6.437 0 0 0-2.479-2.59c-1.061-.641-2.27-.962-3.626-.962-1.357 0-2.578.321-3.663.962-1.061.617-1.9 1.492-2.516 2.627-.592 1.11-.876 2.368-.851 3.774-.025 1.431.259 2.713.851 3.848a7.24 7.24 0 0 0 2.516 2.664c1.085.641 2.306.962 3.663.962Zm13.89 2.257v-19.314h2.775l.074 4.403-.555.185a5.77 5.77 0 0 1 .962-1.998 7.294 7.294 0 0 1 1.665-1.591 7.202 7.202 0 0 1 2.109-.999 7.775 7.775 0 0 1 2.405-.37c1.011 0 1.912.173 2.701.518.814.321 1.492.888 2.035 1.702.567.789.999 1.838 1.295 3.145l-.666-.333.259-.629a6.002 6.002 0 0 1 1.073-1.628 9.284 9.284 0 0 1 1.665-1.443 7.935 7.935 0 0 1 2.072-.962 7.542 7.542 0 0 1 2.331-.37c1.357 0 2.504.296 3.441.888.937.567 1.64 1.443 2.109 2.627.493 1.184.74 2.689.74 4.514V139h-2.849v-11.507c0-1.283-.16-2.331-.481-3.145-.321-.814-.802-1.418-1.443-1.813-.617-.419-1.406-.629-2.368-.629-.839 0-1.616.148-2.331.444a5.242 5.242 0 0 0-1.813 1.184 5.865 5.865 0 0 0-1.184 1.702 5.267 5.267 0 0 0-.407 2.072V139h-2.812v-11.544c0-1.233-.173-2.257-.518-3.071-.321-.814-.802-1.431-1.443-1.85-.641-.419-1.431-.629-2.368-.629a5.67 5.67 0 0 0-2.257.444 5.53 5.53 0 0 0-1.813 1.147 5.865 5.865 0 0 0-1.184 1.702 5.267 5.267 0 0 0-.407 2.072V139h-2.812Zm35.266.37c-.666 0-1.184-.197-1.554-.592-.345-.395-.518-.962-.518-1.702 0-.666.185-1.209.555-1.628.395-.444.9-.666 1.517-.666.666 0 1.172.21 1.517.629.37.395.555.95.555 1.665 0 .691-.197 1.246-.592 1.665-.37.419-.863.629-1.48.629Zm16.707 0a8.84 8.84 0 0 1-2.664-.407 9.683 9.683 0 0 1-2.368-1.184 8.316 8.316 0 0 1-1.776-1.702 5.733 5.733 0 0 1-.962-1.998l.814.037-.111 4.847h-2.738V111.62h2.775v12.691l-.555.148a5.714 5.714 0 0 1 .925-1.961 7.007 7.007 0 0 1 1.739-1.665 8.471 8.471 0 0 1 2.257-1.147 8.374 8.374 0 0 1 2.59-.407c1.727 0 3.268.432 4.625 1.295 1.381.863 2.479 2.047 3.293 3.552.814 1.505 1.221 3.231 1.221 5.18 0 1.949-.395 3.688-1.184 5.217-.789 1.505-1.875 2.689-3.256 3.552-1.357.863-2.898 1.295-4.625 1.295Zm-.444-2.627c1.307 0 2.467-.321 3.478-.962a6.873 6.873 0 0 0 2.368-2.664c.592-1.135.888-2.405.888-3.811 0-1.431-.296-2.701-.888-3.811-.567-1.11-1.357-1.986-2.368-2.627-1.011-.641-2.171-.962-3.478-.962-1.307 0-2.467.321-3.478.962-1.011.641-1.813 1.517-2.405 2.627-.567 1.11-.851 2.38-.851 3.811s.284 2.713.851 3.848c.592 1.11 1.394 1.986 2.405 2.627 1.011.641 2.171.962 3.478.962ZM646.109 139v-19.314h2.775l.074 5.143-.296-.703a7.376 7.376 0 0 1 1.295-2.405 7.222 7.222 0 0 1 2.183-1.776c.839-.444 1.764-.666 2.775-.666.42 0 .814.037 1.184.111.37.049.679.123.925.222l-.777 3.108a3.556 3.556 0 0 0-.999-.296 4.108 4.108 0 0 0-.925-.111c-.838 0-1.591.148-2.257.444a4.788 4.788 0 0 0-1.702 1.258 5.367 5.367 0 0 0-1.073 1.813 6.571 6.571 0 0 0-.37 2.22V139h-2.812Z"/></svg>