<svg xmlns="http://www.w3.org/2000/svg" width="800" height="800" fill="none"><path fill="#004080" d="M540.178 155.005C674.983 155.859 784 265.404 784 400.41l-.005 1.587c-.854 134.805-110.398 243.822-245.404 243.822l-1.588-.005c-50.602-.32-97.57-15.956-136.503-42.504-39.339 26.825-86.883 42.509-138.09 42.509l-1.588-.005c-134.276-.85-242.967-109.54-243.817-243.817L17 400.41C17 264.874 126.874 155 262.41 155l1.587.005c50.602.32 97.57 15.956 136.503 42.505C439.84 170.684 487.384 155 538.591 155l1.587.005ZM262.41 183.31c-119.901 0-217.1 97.199-217.1 217.1s97.199 217.1 217.1 217.1c41.985 0 81.185-11.92 114.404-32.557-50.899-44.655-83.167-110.032-83.628-182.956l-.005-1.587c0-73.562 32.366-139.564 83.634-184.544-33.219-20.637-72.42-32.556-114.405-32.556Zm276.181 0c-41.986 0-81.188 11.918-114.407 32.556 51.268 44.98 83.635 110.982 83.635 184.544l-.005 1.587c-.461 72.924-32.731 138.3-83.63 182.955 33.219 20.638 72.421 32.558 114.407 32.558 119.901-.001 217.099-97.199 217.099-217.1s-97.198-217.1-217.099-217.1ZM400.5 232.88c-48.253 39.819-79.01 100.083-79.01 167.53s30.757 127.709 79.01 167.528c48.253-39.819 79.01-100.081 79.01-167.528 0-67.447-30.757-127.711-79.01-167.53Zm11.257 283.21c7.817 0 14.154 6.337 14.154 14.154 0 7.818-6.337 14.154-14.154 14.154h-24.016c-7.817 0-14.154-6.337-14.154-14.154s6.337-14.154 14.154-14.154h24.016Zm28.518-66.042c7.818 0 14.155 6.337 14.155 14.154s-6.337 14.154-14.155 14.154h-81.052c-7.818 0-14.155-6.336-14.155-14.154 0-7.817 6.337-14.154 14.155-14.154h81.052Zm12.008-63.042c7.818 0 14.154 6.337 14.155 14.154 0 7.818-6.337 14.154-14.155 14.154H345.714c-7.818 0-14.154-6.336-14.154-14.154 0-7.817 6.337-14.154 14.154-14.154h106.569Zm-10.507-64.542c7.818 0 14.155 6.337 14.155 14.154s-6.338 14.154-14.155 14.154h-81.052c-7.818 0-14.155-6.337-14.155-14.154s6.337-14.154 14.155-14.154h81.052Zm-30.019-64.541c7.817 0 14.154 6.337 14.154 14.154s-6.337 14.154-14.154 14.154h-24.016c-7.817 0-14.154-6.337-14.154-14.154s6.337-14.154 14.154-14.154h24.016Z"/><path fill="#004080" d="M148.446 470V339.18h31.77v102.787h58.309V470h-90.079ZM567.629 471V337.939h55.505c8.491 0 15.651 1.267 21.48 3.801 5.83 2.535 10.202 6.337 13.116 11.406 3.042 4.942 4.562 11.025 4.562 18.248 0 7.223-2.027 13.369-6.082 18.439-3.929 5.069-9.442 8.553-16.538 10.454v-3.801c5.956 1.267 11.152 3.548 15.587 6.843 4.435 3.168 7.857 7.16 10.265 11.975 2.534 4.816 3.802 10.328 3.802 16.538 0 6.336-1.014 11.975-3.042 16.918-1.901 4.815-4.815 8.87-8.744 12.165-3.802 3.295-8.427 5.83-13.876 7.604-5.449 1.647-11.659 2.471-18.629 2.471h-57.406Zm20.529-19.769h35.737c5.195 0 9.567-.76 13.116-2.281 3.675-1.521 6.463-3.739 8.364-6.653 2.027-3.042 3.041-6.653 3.041-10.835 0-3.929-1.077-7.287-3.232-10.075-2.027-2.788-4.942-4.879-8.744-6.273-3.801-1.521-8.3-2.281-13.496-2.281h-34.786v38.398Zm0-58.167h33.836c3.801 0 7.16-.76 10.074-2.281 3.042-1.521 5.386-3.612 7.034-6.273 1.774-2.661 2.661-5.703 2.661-9.124 0-5.703-1.901-10.075-5.703-13.116-3.802-3.042-9.251-4.562-16.347-4.562h-31.555v35.356Z"/></svg>